<svg width="325.591" height="69.84" viewBox="0 0 325.591 69.84" xmlns="http://www.w3.org/2000/svg"><g id="svgGroup" stroke-linecap="round" fill-rule="evenodd" font-size="9pt" stroke="#000" stroke-width="0.25mm" fill="none" style="stroke:#000;stroke-width:0.25mm;fill:none"><path d="M 74.891 50.3 L 74.291 53.5 L 75.891 53.5 Q 76.691 53.5 77.391 53.75 L 78.091 54 A 16.677 16.677 0 0 0 78.791 54.662 A 15.192 15.192 0 0 0 78.891 54.75 A 1.728 1.728 0 0 0 79.163 54.948 Q 79.427 55.1 79.691 55.1 Q 80.891 55.1 80.591 56.05 A 2.559 2.559 0 0 1 80.135 56.88 Q 79.893 57.182 79.546 57.466 A 5.783 5.783 0 0 1 79.091 57.8 A 12.513 12.513 0 0 1 77.635 58.644 Q 76.834 59.034 76.09 59.223 A 5.478 5.478 0 0 1 74.741 59.4 A 4.63 4.63 0 0 1 71.961 58.462 A 6.514 6.514 0 0 1 71.191 57.8 A 8.073 8.073 0 0 1 69.757 55.731 A 7.127 7.127 0 0 1 69.191 54 A 7.563 7.563 0 0 1 69.074 53.029 Q 68.966 51.2 69.591 48.7 Q 69.976 44.465 70.037 42.407 A 30.628 30.628 0 0 0 70.041 42.25 A 7.215 7.215 0 0 0 70.044 42.097 Q 70.047 40.883 69.615 40.446 A 0.84 0.84 0 0 0 68.991 40.2 Q 67.991 40.2 65.491 41.55 A 36.227 36.227 0 0 0 63.275 42.858 Q 62.131 43.586 60.884 44.477 A 68.742 68.742 0 0 0 59.891 45.2 Q 56.791 47.5 53.791 50.3 A 35.746 35.746 0 0 0 50.507 53.787 A 29.472 29.472 0 0 0 48.791 56.1 Q 47.591 57.6 46.491 58.75 Q 45.749 59.526 45.006 59.824 A 2.53 2.53 0 0 1 44.291 60 Q 43.618 60.096 42.898 59.961 A 4.936 4.936 0 0 1 42.841 59.95 Q 42.091 59.8 41.391 59.3 Q 40.76 58.668 40.44 58.255 A 3.611 3.611 0 0 1 40.291 58.05 A 1.061 1.061 0 0 1 40.156 57.747 Q 40.042 57.342 40.128 56.693 A 5.391 5.391 0 0 1 40.141 56.6 A 16.547 16.547 0 0 1 40.238 56.031 Q 40.408 55.123 40.755 53.656 A 105.486 105.486 0 0 1 40.791 53.5 Q 41.174 52.275 41.674 50.317 A 141.838 141.838 0 0 0 41.991 49.05 Q 42.691 46.2 43.491 43.4 A 25.83 25.83 0 0 1 44.082 40.944 A 29.743 29.743 0 0 1 44.341 40.1 A 45.542 45.542 0 0 1 45.048 38.073 A 37.452 37.452 0 0 1 45.491 36.95 Q 45.951 35.84 46.234 35.111 A 36.616 36.616 0 0 0 46.391 34.7 A 100.263 100.263 0 0 1 47.082 32.384 Q 47.41 31.332 47.73 30.405 A 56.248 56.248 0 0 1 47.941 29.8 A 107.055 107.055 0 0 1 48.553 28.134 Q 48.829 27.401 49.138 26.605 A 186.451 186.451 0 0 1 49.791 24.95 A 99.148 99.148 0 0 0 50.373 23.46 Q 51.291 21.05 52.491 17.6 Q 54.176 13.006 55.245 10.083 A 3393.385 3393.385 0 0 0 55.841 8.45 Q 56.948 5.418 57.5 3.961 A 122.422 122.422 0 0 1 57.541 3.85 Q 57.995 2.655 58.21 1.902 A 9.315 9.315 0 0 0 58.291 1.6 Q 58.291 1.024 58.525 0.655 A 1.194 1.194 0 0 1 58.741 0.4 A 1.562 1.562 0 0 1 59.552 0.026 A 2.153 2.153 0 0 1 59.891 0 A 2.435 2.435 0 0 1 61.803 0.891 A 3.718 3.718 0 0 1 62.141 1.35 A 6.844 6.844 0 0 1 62.977 3.337 A 8.835 8.835 0 0 1 63.191 4.55 Q 63.391 6.4 62.591 8 A 101.839 101.839 0 0 0 61.363 10.89 Q 60.709 12.494 60.024 14.304 A 185.341 185.341 0 0 0 59.191 16.55 Q 57.391 21.5 55.691 26.25 Q 54.39 29.887 53.206 32.674 A 71.815 71.815 0 0 1 52.491 34.3 Q 52.491 34.671 52.233 35.558 A 17.681 17.681 0 0 1 52.191 35.7 A 12.469 12.469 0 0 1 51.822 36.762 A 9.882 9.882 0 0 1 51.491 37.5 L 50.741 39 L 50.391 39.7 A 1.869 1.869 0 0 1 50.375 39.926 Q 50.326 40.316 50.135 41.039 A 22.916 22.916 0 0 1 50.091 41.2 Q 49.792 42.297 49.294 43.891 A 225.056 225.056 0 0 1 49.291 43.9 A 49.578 49.578 0 0 0 49.082 44.544 Q 48.8 45.43 48.456 46.607 A 146.068 146.068 0 0 0 48.341 47 A 38.207 38.207 0 0 0 47.991 48.288 Q 47.72 49.367 47.591 50.2 A 6.316 6.316 0 0 1 47.91 49.694 Q 48.491 48.85 49.691 47.5 A 54.555 54.555 0 0 1 51.147 45.923 Q 51.848 45.195 52.505 44.575 A 32.512 32.512 0 0 1 52.691 44.4 Q 54.291 43 56.291 41.3 Q 57.94 39.899 59.045 39.109 A 16.74 16.74 0 0 1 59.491 38.8 A 257.916 257.916 0 0 0 60.595 38.06 Q 61.152 37.685 61.641 37.35 L 62.591 36.7 A 0.675 0.675 0 0 1 62.611 36.532 Q 62.667 36.313 62.89 36.26 A 0.574 0.574 0 0 1 62.941 36.25 A 4.954 4.954 0 0 1 63.398 36.207 A 5.966 5.966 0 0 1 63.691 36.2 A 2.473 2.473 0 0 0 63.829 36.197 Q 64.101 36.181 64.141 36.1 Q 64.183 36.018 64.19 35.733 A 5.201 5.201 0 0 0 64.191 35.6 A 0.509 0.509 0 0 1 64.327 35.268 Q 64.587 34.963 65.341 34.7 A 12.933 12.933 0 0 1 66.424 34.379 Q 67.17 34.191 68.041 34.05 A 25.869 25.869 0 0 1 68.956 33.918 Q 69.904 33.8 70.591 33.8 A 4.664 4.664 0 0 1 71.349 33.858 Q 71.753 33.925 72.08 34.068 A 2.283 2.283 0 0 1 72.491 34.3 Q 73.18 34.792 74.255 36.444 A 25.502 25.502 0 0 1 74.291 36.5 A 8.001 8.001 0 0 1 75.577 39.136 A 10.082 10.082 0 0 1 75.841 40.35 A 8.987 8.987 0 0 1 75.948 41.734 Q 75.948 43.331 75.391 45 A 7.204 7.204 0 0 1 75.369 45.532 Q 75.329 46.067 75.217 46.79 A 28.332 28.332 0 0 1 75.141 47.25 A 17.505 17.505 0 0 0 74.901 49.693 A 19.941 19.941 0 0 0 74.891 50.3 Z M 261.691 59.7 L 260.591 58.8 Q 260.134 58.343 260.012 57.844 A 1.563 1.563 0 0 1 259.991 57.75 A 2.118 2.118 0 0 1 259.958 57.404 Q 259.955 57.175 259.996 56.923 A 3.71 3.71 0 0 1 260.091 56.5 L 262.391 49.9 Q 263.991 46.3 264.591 44.65 Q 265.191 43 265.191 42.55 A 1.01 1.01 0 0 0 265.184 42.426 Q 265.146 42.12 264.899 42.198 A 0.455 0.455 0 0 0 264.891 42.2 A 3.064 3.064 0 0 0 264.41 42.306 Q 263.91 42.454 263.216 42.784 A 18.364 18.364 0 0 0 262.491 43.15 A 11.095 11.095 0 0 0 261.719 43.598 Q 260.974 44.075 260.586 44.535 A 2.325 2.325 0 0 0 260.391 44.8 Q 260.038 44.8 259.372 45.503 A 8.44 8.44 0 0 0 259.191 45.7 A 9.146 9.146 0 0 1 258.165 46.681 A 12.031 12.031 0 0 1 257.191 47.4 Q 256.491 48.6 254.441 50.5 Q 252.391 52.4 250.391 54.4 A 16.19 16.19 0 0 0 248.945 55.796 A 21.114 21.114 0 0 0 247.841 57.1 A 101.857 101.857 0 0 0 246.96 58.244 Q 246.273 59.15 245.741 59.9 Q 244.927 61.05 244.617 61.098 A 0.17 0.17 0 0 1 244.591 61.1 Q 243.291 61.1 242.241 60.4 A 3.363 3.363 0 0 1 241.281 59.402 Q 240.926 58.85 240.691 58.1 Q 239.98 56.589 240.533 54.013 A 15.058 15.058 0 0 1 240.691 53.35 Q 241.491 50.3 242.491 45.4 A 46.471 46.471 0 0 0 242.673 44.7 Q 242.916 43.725 242.991 43.2 A 7.883 7.883 0 0 1 243.2 42.214 A 9.346 9.346 0 0 1 243.341 41.75 Q 243.582 41.028 244.193 39.519 A 114.354 114.354 0 0 1 244.241 39.4 Q 244.891 37.802 246.288 34.607 A 430.225 430.225 0 0 0 246.291 34.6 Q 246.844 33.1 247.054 32.192 A 6.437 6.437 0 0 0 247.141 31.75 Q 247.29 30.808 247.291 30.407 A 2.179 2.179 0 0 0 247.291 30.4 A 3.021 3.021 0 0 1 247.412 29.53 A 2.484 2.484 0 0 1 247.841 28.7 Q 248.391 28 249.191 27.7 Q 249.991 27.4 250.691 27.6 A 3.406 3.406 0 0 1 252.356 28.424 A 4.339 4.339 0 0 1 252.641 28.7 Q 253.422 29.526 253.57 30.942 A 6.173 6.173 0 0 1 253.591 31.2 A 7.114 7.114 0 0 1 253.616 31.713 Q 253.622 32.259 253.537 32.748 A 4.623 4.623 0 0 1 253.391 33.35 Q 253.091 34.3 252.791 35.1 L 251.691 37.8 A 28.099 28.099 0 0 0 251.423 38.413 Q 250.991 39.425 250.391 41 Q 249.591 43.1 248.991 44.85 Q 248.443 46.449 248.396 46.837 A 0.531 0.531 0 0 0 248.391 46.9 Q 248.491 47.2 249.091 46.75 A 13.901 13.901 0 0 0 249.501 46.43 Q 249.988 46.035 250.641 45.45 Q 251.591 44.6 252.591 43.8 A 38.408 38.408 0 0 1 255.739 41.121 A 45.264 45.264 0 0 1 257.341 39.95 Q 259.991 38.1 262.391 36.8 A 45.657 45.657 0 0 1 263.523 36.206 Q 264.711 35.605 265.556 35.285 A 8.986 8.986 0 0 1 266.091 35.1 Q 267.452 35.1 268.14 35.484 A 1.573 1.573 0 0 1 268.441 35.7 A 29.085 29.085 0 0 1 268.819 36.056 Q 269.485 36.694 270.691 37.9 A 2.72 2.72 0 0 1 271.439 39.334 A 3.565 3.565 0 0 1 271.491 39.7 A 7.975 7.975 0 0 1 271.525 40.422 A 7.009 7.009 0 0 1 271.391 41.8 A 6.396 6.396 0 0 1 271.34 41.991 Q 271.209 42.451 270.854 43.556 A 178.337 178.337 0 0 1 270.791 43.75 Q 270.291 45.3 269.841 46.7 L 269.391 48.1 L 270.541 47.1 Q 271.691 46.1 273.091 44.95 A 280.694 280.694 0 0 0 273.748 44.41 Q 274.379 43.887 274.825 43.512 A 61.595 61.595 0 0 0 275.191 43.2 Q 279.091 40.2 281.991 39.4 Q 284.835 38.616 286.62 41.388 A 7.899 7.899 0 0 1 286.691 41.5 A 4.619 4.619 0 0 1 287.381 42.28 Q 287.909 43.047 287.941 43.9 Q 287.987 45.097 287.991 47.906 A 381.426 381.426 0 0 1 287.991 48.4 Q 288.091 49.7 288.191 51.5 Q 288.291 53.3 288.441 54.75 Q 288.591 56.2 288.791 56.5 Q 289.065 56.864 289.793 57.104 A 4.873 4.873 0 0 0 289.941 57.15 A 10.024 10.024 0 0 0 290.526 57.302 Q 291.218 57.46 292.161 57.596 A 31.211 31.211 0 0 0 292.191 57.6 Q 293.05 57.715 293.515 58.124 A 1.552 1.552 0 0 1 293.991 58.9 A 1.306 1.306 0 0 1 294.039 59.245 Q 294.039 60.158 292.691 61 Q 291.191 61.9 289.391 61.8 A 13.211 13.211 0 0 1 287.698 61.601 A 9.861 9.861 0 0 1 286.191 61.2 Q 285.7 61.003 284.725 60.227 A 20.82 20.82 0 0 1 284.691 60.2 A 3.824 3.824 0 0 1 283.998 59.458 Q 283.452 58.708 283.019 57.527 A 12.625 12.625 0 0 1 282.991 57.45 Q 282.324 55.59 282.293 52.319 A 33.939 33.939 0 0 1 282.291 52 Q 282.368 49.703 282.415 48.168 A 635.553 635.553 0 0 0 282.441 47.3 A 6.917 6.917 0 0 0 282.444 47.202 Q 282.459 46.205 282.164 45.829 A 0.571 0.571 0 0 0 281.691 45.6 Q 280.999 45.6 279.223 46.76 A 28.082 28.082 0 0 0 278.641 47.15 Q 276.391 48.7 273.491 51.3 A 89.428 89.428 0 0 0 269.827 54.785 A 106.83 106.83 0 0 0 267.591 57.1 A 62.171 62.171 0 0 1 266.18 58.604 A 53.357 53.357 0 0 1 265.641 59.15 Q 264.691 60.1 263.791 60.35 Q 263.094 60.544 262.217 60.047 A 4.918 4.918 0 0 1 261.691 59.7 Z M 111.891 65.8 Q 109.991 65 108.291 63.65 Q 106.591 62.3 106.091 61.4 A 4.263 4.263 0 0 1 106.11 60.985 Q 106.151 60.568 106.282 60.316 A 0.859 0.859 0 0 1 106.391 60.15 Q 106.673 59.822 107.965 59.845 A 10.834 10.834 0 0 1 108.141 59.85 Q 109.477 59.896 112.381 60.239 A 165.389 165.389 0 0 1 112.891 60.3 A 18.632 18.632 0 0 0 113.831 60.274 Q 114.285 60.251 114.8 60.208 A 41.794 41.794 0 0 0 115.891 60.1 Q 117.691 59.9 119.241 59.5 A 7.451 7.451 0 0 0 119.835 59.323 Q 120.834 58.974 120.991 58.5 A 1.071 1.071 0 0 0 121.096 58.496 Q 121.426 58.463 121.232 58.201 A 0.917 0.917 0 0 0 121.191 58.15 Q 120.891 57.8 120.491 57.4 A 1.112 1.112 0 0 1 120.15 57.342 Q 120.003 57.295 119.844 57.208 A 2.707 2.707 0 0 1 119.591 57.05 A 2.608 2.608 0 0 0 119.289 56.866 Q 119.128 56.783 118.979 56.742 A 1.075 1.075 0 0 0 118.691 56.7 A 0.69 0.69 0 0 0 118.596 56.369 Q 118.391 55.995 117.741 55.55 Q 116.791 54.9 115.791 54.5 Q 113.901 52.953 112.453 51.665 A 69.353 69.353 0 0 1 111.991 51.25 Q 110.391 49.8 110.791 49.3 L 110.791 48.85 L 110.791 48.8 Q 110.176 48.8 109.445 47.255 A 12.456 12.456 0 0 1 109.241 46.8 Q 108.566 45.21 108.427 43.873 A 6.529 6.529 0 0 1 108.391 43.2 Q 108.391 42 109.091 40.15 A 21.654 21.654 0 0 1 110.037 38.021 A 27.755 27.755 0 0 1 110.991 36.3 A 20.881 20.881 0 0 1 112.061 34.684 Q 112.651 33.88 113.264 33.234 A 12.321 12.321 0 0 1 113.491 33 A 33.743 33.743 0 0 1 114.968 31.69 Q 115.803 30.989 116.775 30.251 A 62.281 62.281 0 0 1 117.991 29.35 Q 120.691 27.4 123.341 25.85 Q 125.916 24.344 127.688 23.83 A 9.125 9.125 0 0 1 127.791 23.8 A 11.22 11.22 0 0 1 129.371 23.31 Q 130.294 23.1 131.141 23.1 A 5.842 5.842 0 0 1 132.732 23.31 A 4.961 4.961 0 0 1 133.891 23.8 A 5.856 5.856 0 0 1 135.196 24.7 A 7.261 7.261 0 0 1 135.741 25.25 Q 136.591 26.2 137.241 27.15 Q 137.891 28.1 138.091 28.8 Q 138.091 30 137.891 31.45 A 18.798 18.798 0 0 1 137.688 32.652 Q 137.562 33.267 137.402 33.804 A 11.057 11.057 0 0 1 137.341 34 A 3.038 3.038 0 0 1 137.172 34.429 Q 136.838 35.1 136.291 35.1 L 136.041 35.15 Q 135.822 35.194 135.795 35.585 A 1.691 1.691 0 0 0 135.791 35.7 Q 135.791 36.553 134.7 37.624 A 8.969 8.969 0 0 1 134.291 38 Q 132.391 39.3 130.991 39.55 Q 129.84 39.756 129.432 38.913 A 1.96 1.96 0 0 1 129.291 38.5 A 4.124 4.124 0 0 1 129.123 38.26 Q 129.043 38.135 128.986 38.022 A 1.641 1.641 0 0 1 128.891 37.8 A 0.402 0.402 0 0 0 128.615 37.53 Q 128.536 37.506 128.438 37.501 A 0.998 0.998 0 0 0 128.391 37.5 L 128.091 37.2 A 0.872 0.872 0 0 1 127.9 36.898 Q 127.798 36.639 127.792 36.252 A 3.163 3.163 0 0 1 127.791 36.2 A 1.069 1.069 0 0 1 127.964 35.623 A 1.451 1.451 0 0 1 128.091 35.45 L 128.391 35.1 A 0.632 0.632 0 0 0 128.692 35.012 Q 129.069 34.805 129.573 34.117 A 8.728 8.728 0 0 0 129.691 33.95 A 17.942 17.942 0 0 0 130.977 31.785 A 19.946 19.946 0 0 0 131.141 31.45 A 16.285 16.285 0 0 0 131.395 30.9 Q 131.73 30.131 131.782 29.733 A 1.037 1.037 0 0 0 131.791 29.6 Q 131.791 29 131.641 28.9 A 0.326 0.326 0 0 0 131.549 28.862 Q 131.326 28.801 130.712 28.8 A 12.591 12.591 0 0 0 130.691 28.8 A 45.364 45.364 0 0 0 129.557 29.306 Q 129.049 29.541 128.483 29.814 A 95.801 95.801 0 0 0 127.291 30.4 Q 125.291 31.4 123.541 32.35 Q 121.932 33.224 121.126 33.971 A 4.913 4.913 0 0 0 120.991 34.1 A 83.391 83.391 0 0 1 120.852 34.343 Q 120.573 34.828 120.491 34.95 A 0.25 0.25 0 0 1 120.394 35.032 Q 120.3 35.08 120.139 35.094 A 1.692 1.692 0 0 1 119.991 35.1 A 0.332 0.332 0 0 0 119.987 35.039 Q 119.935 34.765 119.341 35.45 A 19.421 19.421 0 0 0 118.906 35.973 Q 118.411 36.586 117.783 37.443 A 62.109 62.109 0 0 0 117.741 37.5 A 93.232 93.232 0 0 0 116.155 39.737 A 84.758 84.758 0 0 0 115.941 40.05 Q 115.107 41.278 114.706 41.878 A 81.413 81.413 0 0 0 114.691 41.9 Q 114.526 42.065 114.327 42.743 A 11.05 11.05 0 0 0 114.241 43.05 A 8.125 8.125 0 0 0 114.058 43.935 A 5.955 5.955 0 0 0 113.991 44.8 Q 113.734 45.573 113.85 46.035 A 0.807 0.807 0 0 0 114.091 46.45 A 18.045 18.045 0 0 0 114.368 46.693 Q 114.963 47.206 116.291 48.3 A 189.437 189.437 0 0 1 117.948 49.544 Q 120.291 51.325 121.791 52.6 Q 123.791 54.3 124.791 55.4 Q 125.789 56.497 125.99 57.395 A 2.256 2.256 0 0 1 125.991 57.4 Q 127.791 60.4 127.091 62 A 3.759 3.759 0 0 1 126.285 63.144 Q 125.379 64.05 123.691 64.8 A 4.847 4.847 0 0 1 123.026 65.066 Q 122.045 65.385 120.391 65.6 Q 118.091 65.9 115.691 65.95 Q 113.921 65.987 112.695 65.888 A 13.27 13.27 0 0 1 111.891 65.8 Z M 188.891 65.8 Q 186.991 65 185.291 63.65 Q 183.591 62.3 183.091 61.4 A 4.263 4.263 0 0 1 183.11 60.985 Q 183.151 60.568 183.282 60.316 A 0.859 0.859 0 0 1 183.391 60.15 Q 183.673 59.822 184.965 59.845 A 10.834 10.834 0 0 1 185.141 59.85 Q 186.477 59.896 189.381 60.239 A 165.389 165.389 0 0 1 189.891 60.3 A 18.632 18.632 0 0 0 190.831 60.274 Q 191.285 60.251 191.8 60.208 A 41.794 41.794 0 0 0 192.891 60.1 Q 194.691 59.9 196.241 59.5 A 7.451 7.451 0 0 0 196.835 59.323 Q 197.834 58.974 197.991 58.5 A 1.071 1.071 0 0 0 198.096 58.496 Q 198.426 58.463 198.232 58.201 A 0.917 0.917 0 0 0 198.191 58.15 Q 197.891 57.8 197.491 57.4 A 1.112 1.112 0 0 1 197.15 57.342 Q 197.003 57.295 196.844 57.208 A 2.707 2.707 0 0 1 196.591 57.05 A 2.608 2.608 0 0 0 196.289 56.866 Q 196.128 56.783 195.979 56.742 A 1.075 1.075 0 0 0 195.691 56.7 A 0.69 0.69 0 0 0 195.596 56.369 Q 195.391 55.995 194.741 55.55 Q 193.791 54.9 192.791 54.5 Q 190.901 52.953 189.453 51.665 A 69.353 69.353 0 0 1 188.991 51.25 Q 187.391 49.8 187.791 49.3 L 187.791 48.85 L 187.791 48.8 Q 187.176 48.8 186.445 47.255 A 12.456 12.456 0 0 1 186.241 46.8 Q 185.566 45.21 185.427 43.873 A 6.529 6.529 0 0 1 185.391 43.2 Q 185.391 42 186.091 40.15 A 21.654 21.654 0 0 1 187.037 38.021 A 27.755 27.755 0 0 1 187.991 36.3 A 20.881 20.881 0 0 1 189.061 34.684 Q 189.651 33.88 190.264 33.234 A 12.321 12.321 0 0 1 190.491 33 A 33.743 33.743 0 0 1 191.968 31.69 Q 192.803 30.989 193.775 30.251 A 62.281 62.281 0 0 1 194.991 29.35 Q 197.691 27.4 200.341 25.85 Q 202.916 24.344 204.688 23.83 A 9.125 9.125 0 0 1 204.791 23.8 A 11.22 11.22 0 0 1 206.371 23.31 Q 207.294 23.1 208.141 23.1 A 5.842 5.842 0 0 1 209.732 23.31 A 4.961 4.961 0 0 1 210.891 23.8 A 5.856 5.856 0 0 1 212.196 24.7 A 7.261 7.261 0 0 1 212.741 25.25 Q 213.591 26.2 214.241 27.15 Q 214.891 28.1 215.091 28.8 Q 215.091 30 214.891 31.45 A 18.798 18.798 0 0 1 214.688 32.652 Q 214.562 33.267 214.402 33.804 A 11.057 11.057 0 0 1 214.341 34 A 3.038 3.038 0 0 1 214.172 34.429 Q 213.838 35.1 213.291 35.1 L 213.041 35.15 Q 212.822 35.194 212.795 35.585 A 1.691 1.691 0 0 0 212.791 35.7 Q 212.791 36.553 211.7 37.624 A 8.969 8.969 0 0 1 211.291 38 Q 209.391 39.3 207.991 39.55 Q 206.84 39.756 206.432 38.913 A 1.96 1.96 0 0 1 206.291 38.5 A 4.124 4.124 0 0 1 206.123 38.26 Q 206.043 38.135 205.986 38.022 A 1.641 1.641 0 0 1 205.891 37.8 A 0.402 0.402 0 0 0 205.615 37.53 Q 205.536 37.506 205.438 37.501 A 0.998 0.998 0 0 0 205.391 37.5 L 205.091 37.2 A 0.872 0.872 0 0 1 204.9 36.898 Q 204.798 36.639 204.792 36.252 A 3.163 3.163 0 0 1 204.791 36.2 A 1.069 1.069 0 0 1 204.964 35.623 A 1.451 1.451 0 0 1 205.091 35.45 L 205.391 35.1 A 0.632 0.632 0 0 0 205.692 35.012 Q 206.069 34.805 206.573 34.117 A 8.728 8.728 0 0 0 206.691 33.95 A 17.942 17.942 0 0 0 207.977 31.785 A 19.946 19.946 0 0 0 208.141 31.45 A 16.285 16.285 0 0 0 208.395 30.9 Q 208.73 30.131 208.782 29.733 A 1.037 1.037 0 0 0 208.791 29.6 Q 208.791 29 208.641 28.9 A 0.326 0.326 0 0 0 208.549 28.862 Q 208.326 28.801 207.712 28.8 A 12.591 12.591 0 0 0 207.691 28.8 A 45.364 45.364 0 0 0 206.557 29.306 Q 206.049 29.541 205.483 29.814 A 95.801 95.801 0 0 0 204.291 30.4 Q 202.291 31.4 200.541 32.35 Q 198.932 33.224 198.126 33.971 A 4.913 4.913 0 0 0 197.991 34.1 A 83.391 83.391 0 0 1 197.852 34.343 Q 197.573 34.828 197.491 34.95 A 0.25 0.25 0 0 1 197.394 35.032 Q 197.3 35.08 197.139 35.094 A 1.692 1.692 0 0 1 196.991 35.1 A 0.332 0.332 0 0 0 196.987 35.039 Q 196.935 34.765 196.341 35.45 A 19.421 19.421 0 0 0 195.906 35.973 Q 195.411 36.586 194.783 37.443 A 62.109 62.109 0 0 0 194.741 37.5 A 93.232 93.232 0 0 0 193.155 39.737 A 84.758 84.758 0 0 0 192.941 40.05 Q 192.107 41.278 191.706 41.878 A 81.413 81.413 0 0 0 191.691 41.9 Q 191.526 42.065 191.327 42.743 A 11.05 11.05 0 0 0 191.241 43.05 A 8.125 8.125 0 0 0 191.058 43.935 A 5.955 5.955 0 0 0 190.991 44.8 Q 190.734 45.573 190.85 46.035 A 0.807 0.807 0 0 0 191.091 46.45 A 18.045 18.045 0 0 0 191.368 46.693 Q 191.963 47.206 193.291 48.3 A 189.437 189.437 0 0 1 194.948 49.544 Q 197.291 51.325 198.791 52.6 Q 200.791 54.3 201.791 55.4 Q 202.789 56.497 202.99 57.395 A 2.256 2.256 0 0 1 202.991 57.4 Q 204.791 60.4 204.091 62 A 3.759 3.759 0 0 1 203.285 63.144 Q 202.379 64.05 200.691 64.8 A 4.847 4.847 0 0 1 200.026 65.066 Q 199.045 65.385 197.391 65.6 Q 195.091 65.9 192.691 65.95 Q 190.921 65.987 189.695 65.888 A 13.27 13.27 0 0 1 188.891 65.8 Z M 20.591 8.8 L 21.091 7.1 L 26.991 7 Q 26.794 8.186 26.401 9.909 A 87.778 87.778 0 0 1 26.391 9.95 Q 25.991 11.7 24.491 14.6 A 30.536 30.536 0 0 1 23.918 16.612 A 23.399 23.399 0 0 1 23.341 18.2 A 16.989 16.989 0 0 0 23.122 18.767 Q 22.71 19.895 22.791 20.3 A 0.653 0.653 0 0 0 22.701 20.431 Q 22.512 20.763 22.125 21.8 A 49.852 49.852 0 0 0 21.941 22.3 Q 21.291 24.1 20.441 26.7 L 18.741 31.9 Q 17.891 34.5 17.241 36.45 A 215.194 215.194 0 0 1 17.013 37.13 Q 16.554 38.494 16.391 38.9 Q 15.723 40.236 14.916 42.619 A 69.977 69.977 0 0 0 14.591 43.6 Q 13.826 45.974 12.474 49.637 A 346.245 346.245 0 0 1 11.591 52 Q 10.791 53.6 9.641 56.8 Q 8.568 59.788 7.886 62.252 A 53.406 53.406 0 0 0 7.791 62.6 Q 6.779 66.191 6.317 67.79 A 200.312 200.312 0 0 1 6.241 68.05 Q 5.802 69.565 5.505 69.743 A 0.206 0.206 0 0 1 5.491 69.75 A 0.691 0.691 0 0 1 5.346 69.801 Q 5.077 69.867 4.584 69.821 A 6.165 6.165 0 0 1 4.391 69.8 A 1.249 1.249 0 0 1 3.825 69.65 Q 3.393 69.431 2.913 68.89 A 7.113 7.113 0 0 1 2.591 68.5 Q 1.682 67.318 1.682 66.219 A 2.636 2.636 0 0 1 1.691 66 A 12.023 12.023 0 0 1 1.803 64.989 Q 1.966 63.892 2.342 62.371 A 53.754 53.754 0 0 1 2.591 61.4 Q 3.391 58.4 4.391 55.3 Q 5.346 52.342 6.118 50.567 A 23.483 23.483 0 0 1 6.191 50.4 A 128.133 128.133 0 0 1 6.555 48.977 Q 6.73 48.31 6.895 47.718 A 74.836 74.836 0 0 1 6.941 47.55 A 230.716 230.716 0 0 0 7.083 47.044 Q 7.313 46.213 7.391 45.9 A 2.064 2.064 0 0 0 7.539 45.663 Q 7.834 45.129 8.341 43.8 A 30.076 30.076 0 0 0 9.147 41.408 A 25.954 25.954 0 0 0 9.391 40.5 A 28.544 28.544 0 0 1 9.51 40.046 Q 9.744 39.173 10.241 37.45 A 165.073 165.073 0 0 1 10.771 35.657 Q 11.009 34.866 11.277 34.002 A 293.955 293.955 0 0 1 11.841 32.2 Q 12.791 29.2 13.741 26.3 A 803.195 803.195 0 0 0 14.525 23.897 Q 14.998 22.438 15.391 21.2 Q 16.091 19 16.291 18.3 A 12.856 12.856 0 0 0 16.973 17.161 A 9.379 9.379 0 0 0 17.491 16 A 50.493 50.493 0 0 0 17.662 15.523 Q 17.915 14.806 17.991 14.5 A 1.738 1.738 0 0 0 18.403 14.126 A 1.434 1.434 0 0 0 18.691 13.45 A 11.717 11.717 0 0 0 18.744 13.068 Q 18.788 12.701 18.791 12.437 A 3.34 3.34 0 0 0 18.791 12.4 A 1.155 1.155 0 0 1 18.849 12.027 A 0.962 0.962 0 0 1 19.141 11.6 A 1.123 1.123 0 0 0 19.351 11.366 A 0.831 0.831 0 0 0 19.491 10.9 A 1.162 1.162 0 0 0 19.85 10.444 Q 19.948 10.229 19.991 9.95 A 2.012 2.012 0 0 1 20.516 8.879 A 2.499 2.499 0 0 1 20.591 8.8 Z M 314.691 61.9 Q 312.591 63.7 309.841 64 A 10.427 10.427 0 0 1 308.71 64.062 A 10.332 10.332 0 0 1 304.491 63.15 Q 301.891 62 300.191 59.6 Q 298.491 57.4 297.991 54.55 A 17.336 17.336 0 0 1 297.792 52.947 Q 297.596 50.502 297.891 47.1 A 17.712 17.712 0 0 1 299.103 41.96 A 22.496 22.496 0 0 1 300.391 39.25 Q 302.591 35.3 305.741 32.2 A 24.617 24.617 0 0 1 308.244 30.031 Q 309.626 28.996 310.999 28.332 A 13.317 13.317 0 0 1 311.991 27.9 A 8.375 8.375 0 0 1 312.763 27.44 Q 313.707 26.948 314.44 26.948 A 2.123 2.123 0 0 1 314.541 26.95 Q 315.572 26.999 317.712 27.193 A 213.46 213.46 0 0 1 317.791 27.2 A 19.603 19.603 0 0 1 318.994 27.393 Q 320.178 27.623 320.949 27.96 A 4.762 4.762 0 0 1 321.241 28.1 Q 322.391 28.7 323.091 29.7 Q 324.25 30.859 324.812 31.988 A 5.538 5.538 0 0 1 325.091 32.65 A 9.099 9.099 0 0 1 325.543 34.62 A 8.015 8.015 0 0 1 325.591 35.5 A 6.935 6.935 0 0 1 325.106 37.027 Q 324.469 38.483 323.107 40.26 A 28.413 28.413 0 0 1 322.641 40.85 A 18.328 18.328 0 0 1 318.06 44.857 A 22.557 22.557 0 0 1 315.991 46 A 13.155 13.155 0 0 1 312.864 46.579 Q 312.05 46.633 311.191 46.6 A 9.866 9.866 0 0 1 309.245 46.342 Q 307.907 46.017 306.891 45.3 A 5.898 5.898 0 0 0 306.425 45.125 Q 305.545 44.839 305 45.031 A 1.111 1.111 0 0 0 304.391 45.55 A 3.529 3.529 0 0 0 304.134 46.151 Q 303.784 47.178 303.47 49.287 A 57.347 57.347 0 0 0 303.291 50.6 A 21.932 21.932 0 0 0 303.207 51.628 Q 303.082 53.784 303.485 55.167 A 4.527 4.527 0 0 0 303.891 56.15 Q 304.891 57.9 306.591 58.2 Q 308.24 58.53 309.311 58.69 A 23.622 23.622 0 0 0 309.741 58.75 A 2.39 2.39 0 0 0 310.051 58.77 Q 311.092 58.77 312.532 57.935 A 10.777 10.777 0 0 0 312.591 57.9 A 66.796 66.796 0 0 1 313.149 57.555 Q 314.248 56.883 314.58 56.754 A 1.044 1.044 0 0 1 314.591 56.75 A 2.112 2.112 0 0 0 314.933 56.588 A 1.574 1.574 0 0 0 315.241 56.35 L 316.491 55.1 A 46.298 46.298 0 0 1 316.823 54.772 Q 317.291 54.313 317.591 54.05 A 1.426 1.426 0 0 1 318.038 53.78 A 1.301 1.301 0 0 1 318.491 53.7 A 1.084 1.084 0 0 1 319.158 53.932 A 1.619 1.619 0 0 1 319.391 54.15 Q 319.715 54.514 320.039 54.715 A 1.927 1.927 0 0 0 320.191 54.8 A 1.193 1.193 0 0 1 320.443 54.824 Q 321.068 54.96 320.7 55.864 A 3.41 3.41 0 0 1 320.641 56 A 6.107 6.107 0 0 1 320.195 56.794 Q 319.676 57.586 318.791 58.535 A 22.424 22.424 0 0 1 318.491 58.85 Q 316.891 60.5 314.691 61.9 Z M 24.891 8.5 L 18.991 8.8 L 14.091 9.3 Q 13.326 9.377 12.091 9.483 A 334.397 334.397 0 0 1 11.291 9.55 A 724.242 724.242 0 0 0 7.898 9.841 A 680.745 680.745 0 0 0 7.791 9.85 Q 6.39 9.974 5.533 10.131 A 9.451 9.451 0 0 0 5.191 10.2 Q 2.554 10.294 1.203 9.945 A 4.803 4.803 0 0 1 1.041 9.9 A 1.796 1.796 0 0 1 0.538 9.67 Q -0.2 9.168 0.074 7.972 A 3.742 3.742 0 0 1 0.091 7.9 A 3.048 3.048 0 0 1 0.536 6.893 A 2.739 2.739 0 0 1 1.391 6.1 A 4.973 4.973 0 0 1 2.185 5.723 Q 3.045 5.397 4.291 5.2 Q 5.391 5 7.141 4.7 Q 8.891 4.4 10.491 4.1 A 494.494 494.494 0 0 0 12.07 3.906 Q 14.179 3.644 15.724 3.43 A 163.617 163.617 0 0 0 15.941 3.4 A 85.345 85.345 0 0 1 19.819 2.952 A 93.585 93.585 0 0 1 20.391 2.9 Q 22.577 2.71 25.846 2.52 A 349.97 349.97 0 0 1 26.191 2.5 A 1657.294 1657.294 0 0 0 28.247 2.357 Q 29.054 2.301 29.777 2.249 A 837.782 837.782 0 0 0 31.141 2.15 L 33.191 2 A 2.787 2.787 0 0 1 33.357 2.007 Q 33.744 2.032 34.798 2.146 A 163.867 163.867 0 0 1 35.291 2.2 Q 37.091 2.4 39.191 2.7 Q 41.291 3 42.291 3.4 A 13.533 13.533 0 0 1 43.547 3.732 Q 44.903 4.167 45.641 4.8 A 4.077 4.077 0 0 1 46.637 6.106 Q 46.896 6.627 47.059 7.267 A 7.319 7.319 0 0 1 47.091 7.4 Q 47.335 8.373 47.184 8.721 A 0.34 0.34 0 0 1 47.091 8.85 Q 46.865 9.039 46.355 9.312 A 14.338 14.338 0 0 1 45.991 9.5 A 28.981 28.981 0 0 1 44.916 9.806 Q 43.878 10.079 43.163 10.163 A 4.953 4.953 0 0 1 42.591 10.2 A 5.84 5.84 0 0 1 41.572 10.104 Q 41.074 10.016 40.527 9.846 A 11.114 11.114 0 0 1 40.091 9.7 A 6.133 6.133 0 0 0 39.141 8.928 A 6.954 6.954 0 0 0 38.941 8.8 A 2.815 2.815 0 0 0 38.505 8.587 Q 38.02 8.395 37.277 8.246 A 14.492 14.492 0 0 0 36.741 8.15 Q 35.191 7.9 31.891 7.7 A 61.062 61.062 0 0 1 29.89 7.883 Q 28.899 7.956 28.014 7.984 A 32.984 32.984 0 0 1 26.991 8 A 13.806 13.806 0 0 0 26.386 8.012 Q 24.891 8.078 24.891 8.5 Z M 87.188 60.636 A 4.444 4.444 0 0 0 88.191 62.2 Q 89.434 63.589 90.169 63.589 A 0.671 0.671 0 0 0 90.641 63.4 A 1.776 1.776 0 0 0 90.955 62.971 Q 91.576 61.86 92.291 58.6 A 6.388 6.388 0 0 0 92.691 57.852 A 7.957 7.957 0 0 0 93.091 56.75 A 32.566 32.566 0 0 0 93.302 55.977 A 27.317 27.317 0 0 0 93.591 54.75 A 19.01 19.01 0 0 1 93.631 54.569 Q 93.75 54.027 93.87 53.647 A 4.853 4.853 0 0 1 93.991 53.3 Q 94.391 52 94.941 50.55 Q 95.32 49.553 95.627 48.864 A 14.082 14.082 0 0 1 95.891 48.3 A 10.637 10.637 0 0 1 95.955 47.954 Q 96.061 47.427 96.23 46.845 A 19.166 19.166 0 0 1 96.641 45.6 Q 97.191 44.1 97.591 43.3 A 28.669 28.669 0 0 0 97.614 43.251 Q 98.323 41.696 98.652 40.48 A 8.678 8.678 0 0 0 98.891 39.3 Q 98.991 38.5 98.841 37.9 A 2.103 2.103 0 0 0 98.291 36.9 A 20.447 20.447 0 0 0 98.149 36.675 Q 97.248 35.275 96.691 34.95 A 1.156 1.156 0 0 0 96.335 34.818 Q 95.776 34.705 94.891 35 A 3.613 3.613 0 0 0 94.533 35.04 Q 93.704 35.175 93.429 35.691 A 1.275 1.275 0 0 0 93.291 36.3 A 4.632 4.632 0 0 1 93.277 36.357 Q 93.183 36.714 92.865 37.742 A 188.752 188.752 0 0 1 92.691 38.3 A 558.967 558.967 0 0 1 92.359 39.359 Q 91.973 40.588 91.491 42.1 Q 90.791 44.3 89.991 46.55 A 83.802 83.802 0 0 1 89.622 47.569 Q 89.319 48.389 89.03 49.109 A 43.998 43.998 0 0 1 88.491 50.4 Q 88.191 51.3 87.891 52.3 Q 87.631 53.167 87.672 53.583 A 0.806 0.806 0 0 0 87.691 53.7 A 0.956 0.956 0 0 1 87.72 53.933 Q 87.72 54.229 87.541 54.55 Q 87.37 54.86 87.316 55.334 A 4.155 4.155 0 0 0 87.291 55.8 A 3.853 3.853 0 0 0 87.15 56.119 Q 87.006 56.486 86.915 56.924 A 7.273 7.273 0 0 0 86.791 57.8 Q 86.691 59 87.041 60.2 A 5.433 5.433 0 0 0 87.188 60.636 Z M 164.188 60.636 A 4.444 4.444 0 0 0 165.191 62.2 Q 166.434 63.589 167.169 63.589 A 0.671 0.671 0 0 0 167.641 63.4 A 1.776 1.776 0 0 0 167.955 62.971 Q 168.576 61.86 169.291 58.6 A 6.388 6.388 0 0 0 169.691 57.852 A 7.957 7.957 0 0 0 170.091 56.75 A 32.566 32.566 0 0 0 170.302 55.977 A 27.317 27.317 0 0 0 170.591 54.75 A 19.01 19.01 0 0 1 170.631 54.569 Q 170.75 54.027 170.87 53.647 A 4.853 4.853 0 0 1 170.991 53.3 Q 171.391 52 171.941 50.55 Q 172.32 49.553 172.627 48.864 A 14.082 14.082 0 0 1 172.891 48.3 A 10.637 10.637 0 0 1 172.955 47.954 Q 173.061 47.427 173.23 46.845 A 19.166 19.166 0 0 1 173.641 45.6 Q 174.191 44.1 174.591 43.3 A 28.669 28.669 0 0 0 174.614 43.251 Q 175.323 41.696 175.652 40.48 A 8.678 8.678 0 0 0 175.891 39.3 Q 175.991 38.5 175.841 37.9 A 2.103 2.103 0 0 0 175.291 36.9 A 20.447 20.447 0 0 0 175.149 36.675 Q 174.248 35.275 173.691 34.95 A 1.156 1.156 0 0 0 173.335 34.818 Q 172.776 34.705 171.891 35 A 3.613 3.613 0 0 0 171.533 35.04 Q 170.704 35.175 170.429 35.691 A 1.275 1.275 0 0 0 170.291 36.3 A 4.632 4.632 0 0 1 170.277 36.357 Q 170.183 36.714 169.865 37.742 A 188.752 188.752 0 0 1 169.691 38.3 A 558.967 558.967 0 0 1 169.359 39.359 Q 168.973 40.588 168.491 42.1 Q 167.791 44.3 166.991 46.55 A 83.802 83.802 0 0 1 166.622 47.569 Q 166.319 48.389 166.03 49.109 A 43.998 43.998 0 0 1 165.491 50.4 Q 165.191 51.3 164.891 52.3 Q 164.631 53.167 164.672 53.583 A 0.806 0.806 0 0 0 164.691 53.7 A 0.956 0.956 0 0 1 164.72 53.933 Q 164.72 54.229 164.541 54.55 Q 164.37 54.86 164.316 55.334 A 4.155 4.155 0 0 0 164.291 55.8 A 3.853 3.853 0 0 0 164.15 56.119 Q 164.006 56.486 163.915 56.924 A 7.273 7.273 0 0 0 163.791 57.8 Q 163.691 59 164.041 60.2 A 5.433 5.433 0 0 0 164.188 60.636 Z M 314.591 40.7 A 9.396 9.396 0 0 0 315.681 40.11 Q 316.273 39.74 316.891 39.25 A 11.256 11.256 0 0 0 318.667 37.505 A 10.304 10.304 0 0 0 318.941 37.15 A 6.822 6.822 0 0 0 319.343 36.547 Q 319.715 35.913 319.778 35.405 A 1.644 1.644 0 0 0 319.791 35.2 A 2.684 2.684 0 0 0 318.917 33.206 A 4.04 4.04 0 0 0 318.491 32.85 A 2.746 2.746 0 0 0 317.451 32.393 Q 316.436 32.169 314.982 32.503 A 10.745 10.745 0 0 0 314.591 32.6 A 4.511 4.511 0 0 0 313.762 32.926 Q 313.375 33.12 312.958 33.401 A 11.414 11.414 0 0 0 312.091 34.05 Q 310.691 35.2 309.441 36.6 A 34.257 34.257 0 0 0 308.574 37.608 Q 307.91 38.413 307.441 39.1 Q 306.772 40.083 306.86 40.347 A 0.133 0.133 0 0 0 306.891 40.4 A 0.895 0.895 0 0 0 307.157 40.668 Q 307.596 40.972 308.591 41.15 Q 309.941 41.391 311.617 41.307 A 18.443 18.443 0 0 0 311.741 41.3 Q 313.001 41.228 313.924 40.949 A 5.372 5.372 0 0 0 314.591 40.7 Z M 97.509 21.13 A 3.2 3.2 0 0 0 97.891 21.6 A 6.051 6.051 0 0 0 98.321 21.909 Q 99.273 22.531 100.153 22.531 A 2.453 2.453 0 0 0 100.541 22.5 A 2.162 2.162 0 0 0 101.072 22.339 Q 102.103 21.884 103.291 20.3 A 28.073 28.073 0 0 0 103.959 19.454 Q 104.757 18.398 105.168 17.605 A 4.927 4.927 0 0 0 105.491 16.85 Q 105.798 15.891 105.34 14.549 A 8.136 8.136 0 0 0 104.991 13.7 A 8.923 8.923 0 0 0 104.507 12.998 Q 104.147 12.528 103.768 12.186 A 3.888 3.888 0 0 0 102.841 11.55 A 2.532 2.532 0 0 0 102.709 11.492 Q 101.623 11.046 100.491 11.8 A 1.25 1.25 0 0 0 100.115 11.964 A 1.493 1.493 0 0 0 99.791 12.25 A 1.451 1.451 0 0 0 99.664 12.423 A 1.069 1.069 0 0 0 99.491 13 A 2.3 2.3 0 0 1 99.522 13.379 Q 99.522 14.121 99.072 15.002 A 7.2 7.2 0 0 1 98.591 15.8 A 12.283 12.283 0 0 1 98.559 15.847 Q 97.48 17.402 96.691 17.5 A 0.165 0.165 0 0 0 96.565 17.555 Q 96.417 17.716 96.491 18.35 Q 96.591 19.2 96.991 20.15 A 6.994 6.994 0 0 0 97.185 20.572 Q 97.34 20.881 97.509 21.13 Z M 174.509 21.13 A 3.2 3.2 0 0 0 174.891 21.6 A 6.051 6.051 0 0 0 175.321 21.909 Q 176.273 22.531 177.153 22.531 A 2.453 2.453 0 0 0 177.541 22.5 A 2.162 2.162 0 0 0 178.072 22.339 Q 179.103 21.884 180.291 20.3 A 28.073 28.073 0 0 0 180.959 19.454 Q 181.757 18.398 182.168 17.605 A 4.927 4.927 0 0 0 182.491 16.85 Q 182.798 15.891 182.34 14.549 A 8.136 8.136 0 0 0 181.991 13.7 A 8.923 8.923 0 0 0 181.507 12.998 Q 181.147 12.528 180.768 12.186 A 3.888 3.888 0 0 0 179.841 11.55 A 2.532 2.532 0 0 0 179.709 11.492 Q 178.623 11.046 177.491 11.8 A 1.25 1.25 0 0 0 177.115 11.964 A 1.493 1.493 0 0 0 176.791 12.25 A 1.451 1.451 0 0 0 176.664 12.423 A 1.069 1.069 0 0 0 176.491 13 A 2.3 2.3 0 0 1 176.522 13.379 Q 176.522 14.121 176.072 15.002 A 7.2 7.2 0 0 1 175.591 15.8 A 12.283 12.283 0 0 1 175.559 15.847 Q 174.48 17.402 173.691 17.5 A 0.165 0.165 0 0 0 173.565 17.555 Q 173.417 17.716 173.491 18.35 Q 173.591 19.2 173.991 20.15 A 6.994 6.994 0 0 0 174.185 20.572 Q 174.34 20.881 174.509 21.13 Z" vector-effect="non-scaling-stroke"/></g></svg>