<svg width="388.791" height="85.726" viewBox="0 0 388.791 85.726" xmlns="http://www.w3.org/2000/svg"><g id="svgGroup" stroke-linecap="round" fill-rule="evenodd" font-size="9pt" stroke="#000" stroke-width="0.25mm" fill="none" style="stroke:#000;stroke-width:0.25mm;fill:none"><path d="M 282.191 33.8 Q 281.891 34.5 279.891 34.9 A 33.442 33.442 0 0 1 278.741 35.106 Q 276.791 35.425 273.491 35.8 Q 272.496 35.877 270.768 35.953 A 222.544 222.544 0 0 1 269.641 36 Q 267.091 36.1 264.141 36.2 Q 261.314 36.296 258.992 36.254 A 72.422 72.422 0 0 1 258.791 36.25 Q 256.391 36.2 255.491 36 L 255.041 36.5 Q 254.591 37 254.591 37.8 A 15.827 15.827 0 0 0 254.17 38.578 Q 253.731 39.44 253.185 40.695 A 71.639 71.639 0 0 0 252.841 41.5 Q 251.791 44 250.541 47 Q 249.291 50 248.241 53 A 260.883 260.883 0 0 0 247.503 55.138 Q 247.216 55.981 246.963 56.747 A 138.999 138.999 0 0 0 246.491 58.2 A 34.935 34.935 0 0 0 246.219 59.096 Q 245.848 60.378 245.799 61.018 A 2.378 2.378 0 0 0 245.791 61.2 A 26.62 26.62 0 0 0 245.255 62.767 Q 244.823 64.185 244.691 65.3 A 9.871 9.871 0 0 1 244.598 65.933 Q 244.39 67.061 243.991 67.3 Q 243.895 67.687 242.768 67.512 A 6.867 6.867 0 0 1 242.691 67.5 Q 241.491 67.3 240.691 66.4 Q 239.736 65.684 239.446 65.062 A 1.379 1.379 0 0 1 239.341 64.75 A 1.332 1.332 0 0 1 239.32 64.587 Q 239.263 63.807 239.853 61.923 A 27.912 27.912 0 0 1 239.891 61.8 Q 240.121 60.805 240.615 59.077 A 149.136 149.136 0 0 1 240.941 57.95 Q 241.691 55.4 242.641 52.3 Q 243.591 49.2 244.641 46.25 Q 245.425 44.049 246.18 42.433 A 24.441 24.441 0 0 1 246.691 41.4 Q 247.534 39.945 247.907 38.696 A 7.761 7.761 0 0 0 248.091 37.95 Q 248.391 36.4 248.891 35.1 A 15.368 15.368 0 0 1 248.865 34.774 Q 248.807 33.938 248.891 33.6 Q 248.984 33.229 249.593 32.514 A 11.172 11.172 0 0 1 249.691 32.4 Q 250.105 32.069 250.691 31.292 A 16.632 16.632 0 0 0 250.941 30.95 Q 251.568 30.073 252.369 28.394 A 41.71 41.71 0 0 0 252.691 27.7 Q 252.921 26.935 253.356 25.729 A 88.684 88.684 0 0 1 253.641 24.95 Q 254.291 23.2 254.891 21.35 A 86.002 86.002 0 0 1 255.327 20.04 Q 255.679 19.013 255.991 18.2 A 90.196 90.196 0 0 0 256.109 17.894 Q 256.482 16.912 256.491 16.805 A 0.058 0.058 0 0 0 256.491 16.8 A 4.385 4.385 0 0 0 256.596 16.571 Q 256.767 16.173 257.033 15.416 A 47.966 47.966 0 0 0 257.091 15.25 Q 257.433 14.269 257.629 13.615 A 17.81 17.81 0 0 0 257.691 13.4 Q 258.049 12.148 258.287 11.296 A 177.926 177.926 0 0 0 258.341 11.1 A 3.838 3.838 0 0 0 258.383 10.935 Q 258.551 10.21 258.201 10.2 A 0.345 0.345 0 0 0 258.191 10.2 A 5.041 5.041 0 0 1 257.729 10.288 Q 257.04 10.392 255.801 10.461 A 57.588 57.588 0 0 1 254.991 10.5 Q 253.836 10.693 253.283 10.746 A 7.203 7.203 0 0 1 253.241 10.75 A 8.117 8.117 0 0 0 252.804 10.801 Q 252.523 10.842 252.291 10.9 A 4.925 4.925 0 0 1 251.834 10.925 Q 251.361 10.928 250.937 10.833 A 3.384 3.384 0 0 1 250.491 10.7 Q 249.691 10.4 249.691 9.5 A 5.364 5.364 0 0 1 250.044 8.121 A 4.332 4.332 0 0 1 250.841 6.85 Q 251.791 5.8 253.291 5.7 A 13.777 13.777 0 0 1 254.126 5.491 A 17.773 17.773 0 0 1 254.841 5.35 Q 255.492 5.235 256.524 4.974 A 55.35 55.35 0 0 0 257.191 4.8 Q 259.091 4.4 260.141 4.15 Q 260.951 3.957 261.493 4.032 A 1.66 1.66 0 0 1 261.791 4.1 A 6.464 6.464 0 0 0 262.472 3.633 A 5.641 5.641 0 0 0 262.691 3.45 A 1.489 1.489 0 0 0 262.902 3.227 Q 263.015 3.077 263.06 2.92 A 0.786 0.786 0 0 0 263.091 2.7 Q 263.091 2.257 263.444 2.011 A 1.111 1.111 0 0 1 263.541 1.95 Q 263.991 1.7 264.591 1.65 Q 265.191 1.6 265.841 1.8 Q 266.491 2 266.791 2.5 A 0.743 0.743 0 0 0 266.965 2.678 Q 267.21 2.863 267.691 3 A 1.963 1.963 0 0 0 267.957 3.054 Q 268.677 3.155 270.148 2.963 A 23.285 23.285 0 0 0 270.241 2.95 Q 271.658 2.759 273.983 2.304 A 158.873 158.873 0 0 0 275.491 2 Q 277.202 1.81 279.77 1.62 A 215.04 215.04 0 0 1 280.041 1.6 Q 282.331 1.434 283.823 1.752 A 6.354 6.354 0 0 1 284.391 1.9 A 18.103 18.103 0 0 1 285.743 1.711 Q 286.43 1.643 287.049 1.643 A 10.616 10.616 0 0 1 287.441 1.65 A 8.075 8.075 0 0 0 287.652 1.655 Q 288.622 1.666 289.105 1.419 A 1.093 1.093 0 0 0 289.291 1.3 Q 291.391 1.7 292.341 1.85 A 3.848 3.848 0 0 1 293.081 2.039 A 2.745 2.745 0 0 1 293.891 2.5 Q 294.182 2.791 294.182 3.056 A 0.49 0.49 0 0 1 294.141 3.25 L 293.991 3.6 Q 293.591 3.4 294.091 3.65 Q 294.591 3.9 294.791 4.1 A 2.752 2.752 0 0 1 295.154 4.286 Q 295.333 4.397 295.46 4.523 A 1.081 1.081 0 0 1 295.691 4.85 A 2.518 2.518 0 0 1 295.832 5.248 A 1.822 1.822 0 0 1 295.891 5.7 A 2.717 2.717 0 0 1 295.872 6.031 Q 295.851 6.206 295.805 6.357 A 1.615 1.615 0 0 1 295.791 6.4 A 1.402 1.402 0 0 1 295.669 6.852 Q 295.435 7.343 294.791 7.45 Q 293.929 7.594 290.59 7.508 A 141.222 141.222 0 0 1 290.291 7.5 Q 285.991 6.9 281.841 7.05 Q 277.691 7.2 272.191 8 A 18.507 18.507 0 0 0 270.415 8.171 Q 269.465 8.311 268.641 8.55 A 78.777 78.777 0 0 1 268.275 8.656 Q 267.308 8.931 267.003 8.986 A 0.706 0.706 0 0 1 266.891 9 Q 266.491 9 265.491 10.35 A 9.074 9.074 0 0 0 264.823 11.412 Q 264.196 12.565 263.61 14.246 A 29.848 29.848 0 0 0 263.591 14.3 Q 263.265 14.872 262.538 16.645 A 106.465 106.465 0 0 0 262.191 17.5 Q 261.191 20 260.041 22.9 Q 259.053 25.392 258.286 27.368 A 431.59 431.59 0 0 0 258.041 28 Q 257.347 29.797 257.087 30.26 A 0.708 0.708 0 0 1 256.991 30.4 Q 258.391 30.8 261.541 30.8 Q 264.691 30.8 268.541 30.55 Q 272.391 30.3 275.591 30 Q 277.091 29.7 278.741 29.45 A 17.502 17.502 0 0 1 279.178 29.389 Q 280.233 29.257 280.712 29.35 A 1 1 0 0 1 280.891 29.4 Q 281.391 29.7 281.791 30.55 Q 282.191 31.4 282.341 32.3 A 3.767 3.767 0 0 1 282.382 32.627 Q 282.413 33.023 282.345 33.352 A 1.821 1.821 0 0 1 282.191 33.8 Z M 74.891 50.3 L 74.291 53.5 L 75.891 53.5 Q 76.691 53.5 77.391 53.75 L 78.091 54 A 16.677 16.677 0 0 0 78.791 54.662 A 15.192 15.192 0 0 0 78.891 54.75 A 1.728 1.728 0 0 0 79.163 54.948 Q 79.427 55.1 79.691 55.1 Q 80.891 55.1 80.591 56.05 A 2.559 2.559 0 0 1 80.135 56.88 Q 79.893 57.182 79.546 57.466 A 5.783 5.783 0 0 1 79.091 57.8 A 12.513 12.513 0 0 1 77.635 58.644 Q 76.834 59.034 76.09 59.223 A 5.478 5.478 0 0 1 74.741 59.4 A 4.63 4.63 0 0 1 71.961 58.462 A 6.514 6.514 0 0 1 71.191 57.8 A 8.073 8.073 0 0 1 69.757 55.731 A 7.127 7.127 0 0 1 69.191 54 A 7.563 7.563 0 0 1 69.074 53.029 Q 68.966 51.2 69.591 48.7 Q 69.976 44.465 70.037 42.407 A 30.628 30.628 0 0 0 70.041 42.25 A 7.215 7.215 0 0 0 70.044 42.097 Q 70.047 40.883 69.615 40.446 A 0.84 0.84 0 0 0 68.991 40.2 Q 67.991 40.2 65.491 41.55 A 36.227 36.227 0 0 0 63.275 42.858 Q 62.131 43.586 60.884 44.477 A 68.742 68.742 0 0 0 59.891 45.2 Q 56.791 47.5 53.791 50.3 A 35.746 35.746 0 0 0 50.507 53.787 A 29.472 29.472 0 0 0 48.791 56.1 Q 47.591 57.6 46.491 58.75 Q 45.749 59.526 45.006 59.824 A 2.53 2.53 0 0 1 44.291 60 Q 43.618 60.096 42.898 59.961 A 4.936 4.936 0 0 1 42.841 59.95 Q 42.091 59.8 41.391 59.3 Q 40.76 58.668 40.44 58.255 A 3.611 3.611 0 0 1 40.291 58.05 A 1.061 1.061 0 0 1 40.156 57.747 Q 40.042 57.342 40.128 56.693 A 5.391 5.391 0 0 1 40.141 56.6 A 16.547 16.547 0 0 1 40.238 56.031 Q 40.408 55.123 40.755 53.656 A 105.486 105.486 0 0 1 40.791 53.5 Q 41.174 52.275 41.674 50.317 A 141.838 141.838 0 0 0 41.991 49.05 Q 42.691 46.2 43.491 43.4 A 25.83 25.83 0 0 1 44.082 40.944 A 29.743 29.743 0 0 1 44.341 40.1 A 45.542 45.542 0 0 1 45.048 38.073 A 37.452 37.452 0 0 1 45.491 36.95 Q 45.951 35.84 46.234 35.111 A 36.616 36.616 0 0 0 46.391 34.7 A 100.263 100.263 0 0 1 47.082 32.384 Q 47.41 31.332 47.73 30.405 A 56.248 56.248 0 0 1 47.941 29.8 A 107.055 107.055 0 0 1 48.553 28.134 Q 48.829 27.401 49.138 26.605 A 186.451 186.451 0 0 1 49.791 24.95 A 99.148 99.148 0 0 0 50.373 23.46 Q 51.291 21.05 52.491 17.6 Q 54.176 13.006 55.245 10.083 A 3393.385 3393.385 0 0 0 55.841 8.45 Q 56.948 5.418 57.5 3.961 A 122.422 122.422 0 0 1 57.541 3.85 Q 57.995 2.655 58.21 1.902 A 9.315 9.315 0 0 0 58.291 1.6 Q 58.291 1.024 58.525 0.655 A 1.194 1.194 0 0 1 58.741 0.4 A 1.562 1.562 0 0 1 59.552 0.026 A 2.153 2.153 0 0 1 59.891 0 A 2.435 2.435 0 0 1 61.803 0.891 A 3.718 3.718 0 0 1 62.141 1.35 A 6.844 6.844 0 0 1 62.977 3.337 A 8.835 8.835 0 0 1 63.191 4.55 Q 63.391 6.4 62.591 8 A 101.839 101.839 0 0 0 61.363 10.89 Q 60.709 12.494 60.024 14.304 A 185.341 185.341 0 0 0 59.191 16.55 Q 57.391 21.5 55.691 26.25 Q 54.39 29.887 53.206 32.674 A 71.815 71.815 0 0 1 52.491 34.3 Q 52.491 34.671 52.233 35.558 A 17.681 17.681 0 0 1 52.191 35.7 A 12.469 12.469 0 0 1 51.822 36.762 A 9.882 9.882 0 0 1 51.491 37.5 L 50.741 39 L 50.391 39.7 A 1.869 1.869 0 0 1 50.375 39.926 Q 50.326 40.316 50.135 41.039 A 22.916 22.916 0 0 1 50.091 41.2 Q 49.792 42.297 49.294 43.891 A 225.056 225.056 0 0 1 49.291 43.9 A 49.578 49.578 0 0 0 49.082 44.544 Q 48.8 45.43 48.456 46.607 A 146.068 146.068 0 0 0 48.341 47 A 38.207 38.207 0 0 0 47.991 48.288 Q 47.72 49.367 47.591 50.2 A 6.316 6.316 0 0 1 47.91 49.694 Q 48.491 48.85 49.691 47.5 A 54.555 54.555 0 0 1 51.147 45.923 Q 51.848 45.195 52.505 44.575 A 32.512 32.512 0 0 1 52.691 44.4 Q 54.291 43 56.291 41.3 Q 57.94 39.899 59.045 39.109 A 16.74 16.74 0 0 1 59.491 38.8 A 257.916 257.916 0 0 0 60.595 38.06 Q 61.152 37.685 61.641 37.35 L 62.591 36.7 A 0.675 0.675 0 0 1 62.611 36.532 Q 62.667 36.313 62.89 36.26 A 0.574 0.574 0 0 1 62.941 36.25 A 4.954 4.954 0 0 1 63.398 36.207 A 5.966 5.966 0 0 1 63.691 36.2 A 2.473 2.473 0 0 0 63.829 36.197 Q 64.101 36.181 64.141 36.1 Q 64.183 36.018 64.19 35.733 A 5.201 5.201 0 0 0 64.191 35.6 A 0.509 0.509 0 0 1 64.327 35.268 Q 64.587 34.963 65.341 34.7 A 12.933 12.933 0 0 1 66.424 34.379 Q 67.17 34.191 68.041 34.05 A 25.869 25.869 0 0 1 68.956 33.918 Q 69.904 33.8 70.591 33.8 A 4.664 4.664 0 0 1 71.349 33.858 Q 71.753 33.925 72.08 34.068 A 2.283 2.283 0 0 1 72.491 34.3 Q 73.18 34.792 74.255 36.444 A 25.502 25.502 0 0 1 74.291 36.5 A 8.001 8.001 0 0 1 75.577 39.136 A 10.082 10.082 0 0 1 75.841 40.35 A 8.987 8.987 0 0 1 75.948 41.734 Q 75.948 43.331 75.391 45 A 7.204 7.204 0 0 1 75.369 45.532 Q 75.329 46.067 75.217 46.79 A 28.332 28.332 0 0 1 75.141 47.25 A 17.505 17.505 0 0 0 74.901 49.693 A 19.941 19.941 0 0 0 74.891 50.3 Z M 111.891 65.8 Q 109.991 65 108.291 63.65 Q 106.591 62.3 106.091 61.4 A 4.263 4.263 0 0 1 106.11 60.985 Q 106.151 60.568 106.282 60.316 A 0.859 0.859 0 0 1 106.391 60.15 Q 106.673 59.822 107.965 59.845 A 10.834 10.834 0 0 1 108.141 59.85 Q 109.477 59.896 112.381 60.239 A 165.389 165.389 0 0 1 112.891 60.3 A 18.632 18.632 0 0 0 113.831 60.274 Q 114.285 60.251 114.8 60.208 A 41.794 41.794 0 0 0 115.891 60.1 Q 117.691 59.9 119.241 59.5 A 7.451 7.451 0 0 0 119.835 59.323 Q 120.834 58.974 120.991 58.5 A 1.071 1.071 0 0 0 121.096 58.496 Q 121.426 58.463 121.232 58.201 A 0.917 0.917 0 0 0 121.191 58.15 Q 120.891 57.8 120.491 57.4 A 1.112 1.112 0 0 1 120.15 57.342 Q 120.003 57.295 119.844 57.208 A 2.707 2.707 0 0 1 119.591 57.05 A 2.608 2.608 0 0 0 119.289 56.866 Q 119.128 56.783 118.979 56.742 A 1.075 1.075 0 0 0 118.691 56.7 A 0.69 0.69 0 0 0 118.596 56.369 Q 118.391 55.995 117.741 55.55 Q 116.791 54.9 115.791 54.5 Q 113.901 52.953 112.453 51.665 A 69.353 69.353 0 0 1 111.991 51.25 Q 110.391 49.8 110.791 49.3 L 110.791 48.85 L 110.791 48.8 Q 110.176 48.8 109.445 47.255 A 12.456 12.456 0 0 1 109.241 46.8 Q 108.566 45.21 108.427 43.873 A 6.529 6.529 0 0 1 108.391 43.2 Q 108.391 42 109.091 40.15 A 21.654 21.654 0 0 1 110.037 38.021 A 27.755 27.755 0 0 1 110.991 36.3 A 20.881 20.881 0 0 1 112.061 34.684 Q 112.651 33.88 113.264 33.234 A 12.321 12.321 0 0 1 113.491 33 A 33.743 33.743 0 0 1 114.968 31.69 Q 115.803 30.989 116.775 30.251 A 62.281 62.281 0 0 1 117.991 29.35 Q 120.691 27.4 123.341 25.85 Q 125.916 24.344 127.688 23.83 A 9.125 9.125 0 0 1 127.791 23.8 A 11.22 11.22 0 0 1 129.371 23.31 Q 130.294 23.1 131.141 23.1 A 5.842 5.842 0 0 1 132.732 23.31 A 4.961 4.961 0 0 1 133.891 23.8 A 5.856 5.856 0 0 1 135.196 24.7 A 7.261 7.261 0 0 1 135.741 25.25 Q 136.591 26.2 137.241 27.15 Q 137.891 28.1 138.091 28.8 Q 138.091 30 137.891 31.45 A 18.798 18.798 0 0 1 137.688 32.652 Q 137.562 33.267 137.402 33.804 A 11.057 11.057 0 0 1 137.341 34 A 3.038 3.038 0 0 1 137.172 34.429 Q 136.838 35.1 136.291 35.1 L 136.041 35.15 Q 135.822 35.194 135.795 35.585 A 1.691 1.691 0 0 0 135.791 35.7 Q 135.791 36.553 134.7 37.624 A 8.969 8.969 0 0 1 134.291 38 Q 132.391 39.3 130.991 39.55 Q 129.84 39.756 129.432 38.913 A 1.96 1.96 0 0 1 129.291 38.5 A 4.124 4.124 0 0 1 129.123 38.26 Q 129.043 38.135 128.986 38.022 A 1.641 1.641 0 0 1 128.891 37.8 A 0.402 0.402 0 0 0 128.615 37.53 Q 128.536 37.506 128.438 37.501 A 0.998 0.998 0 0 0 128.391 37.5 L 128.091 37.2 A 0.872 0.872 0 0 1 127.9 36.898 Q 127.798 36.639 127.792 36.252 A 3.163 3.163 0 0 1 127.791 36.2 A 1.069 1.069 0 0 1 127.964 35.623 A 1.451 1.451 0 0 1 128.091 35.45 L 128.391 35.1 A 0.632 0.632 0 0 0 128.692 35.012 Q 129.069 34.805 129.573 34.117 A 8.728 8.728 0 0 0 129.691 33.95 A 17.942 17.942 0 0 0 130.977 31.785 A 19.946 19.946 0 0 0 131.141 31.45 A 16.285 16.285 0 0 0 131.395 30.9 Q 131.73 30.131 131.782 29.733 A 1.037 1.037 0 0 0 131.791 29.6 Q 131.791 29 131.641 28.9 A 0.326 0.326 0 0 0 131.549 28.862 Q 131.326 28.801 130.712 28.8 A 12.591 12.591 0 0 0 130.691 28.8 A 45.364 45.364 0 0 0 129.557 29.306 Q 129.049 29.541 128.483 29.814 A 95.801 95.801 0 0 0 127.291 30.4 Q 125.291 31.4 123.541 32.35 Q 121.932 33.224 121.126 33.971 A 4.913 4.913 0 0 0 120.991 34.1 A 83.391 83.391 0 0 1 120.852 34.343 Q 120.573 34.828 120.491 34.95 A 0.25 0.25 0 0 1 120.394 35.032 Q 120.3 35.08 120.139 35.094 A 1.692 1.692 0 0 1 119.991 35.1 A 0.332 0.332 0 0 0 119.987 35.039 Q 119.935 34.765 119.341 35.45 A 19.421 19.421 0 0 0 118.906 35.973 Q 118.411 36.586 117.783 37.443 A 62.109 62.109 0 0 0 117.741 37.5 A 93.232 93.232 0 0 0 116.155 39.737 A 84.758 84.758 0 0 0 115.941 40.05 Q 115.107 41.278 114.706 41.878 A 81.413 81.413 0 0 0 114.691 41.9 Q 114.526 42.065 114.327 42.743 A 11.05 11.05 0 0 0 114.241 43.05 A 8.125 8.125 0 0 0 114.058 43.935 A 5.955 5.955 0 0 0 113.991 44.8 Q 113.734 45.573 113.85 46.035 A 0.807 0.807 0 0 0 114.091 46.45 A 18.045 18.045 0 0 0 114.368 46.693 Q 114.963 47.206 116.291 48.3 A 189.437 189.437 0 0 1 117.948 49.544 Q 120.291 51.325 121.791 52.6 Q 123.791 54.3 124.791 55.4 Q 125.789 56.497 125.99 57.395 A 2.256 2.256 0 0 1 125.991 57.4 Q 127.791 60.4 127.091 62 A 3.759 3.759 0 0 1 126.285 63.144 Q 125.379 64.05 123.691 64.8 A 4.847 4.847 0 0 1 123.026 65.066 Q 122.045 65.385 120.391 65.6 Q 118.091 65.9 115.691 65.95 Q 113.921 65.987 112.695 65.888 A 13.27 13.27 0 0 1 111.891 65.8 Z M 188.891 65.8 Q 186.991 65 185.291 63.65 Q 183.591 62.3 183.091 61.4 A 4.263 4.263 0 0 1 183.11 60.985 Q 183.151 60.568 183.282 60.316 A 0.859 0.859 0 0 1 183.391 60.15 Q 183.673 59.822 184.965 59.845 A 10.834 10.834 0 0 1 185.141 59.85 Q 186.477 59.896 189.381 60.239 A 165.389 165.389 0 0 1 189.891 60.3 A 18.632 18.632 0 0 0 190.831 60.274 Q 191.285 60.251 191.8 60.208 A 41.794 41.794 0 0 0 192.891 60.1 Q 194.691 59.9 196.241 59.5 A 7.451 7.451 0 0 0 196.835 59.323 Q 197.834 58.974 197.991 58.5 A 1.071 1.071 0 0 0 198.096 58.496 Q 198.426 58.463 198.232 58.201 A 0.917 0.917 0 0 0 198.191 58.15 Q 197.891 57.8 197.491 57.4 A 1.112 1.112 0 0 1 197.15 57.342 Q 197.003 57.295 196.844 57.208 A 2.707 2.707 0 0 1 196.591 57.05 A 2.608 2.608 0 0 0 196.289 56.866 Q 196.128 56.783 195.979 56.742 A 1.075 1.075 0 0 0 195.691 56.7 A 0.69 0.69 0 0 0 195.596 56.369 Q 195.391 55.995 194.741 55.55 Q 193.791 54.9 192.791 54.5 Q 190.901 52.953 189.453 51.665 A 69.353 69.353 0 0 1 188.991 51.25 Q 187.391 49.8 187.791 49.3 L 187.791 48.85 L 187.791 48.8 Q 187.176 48.8 186.445 47.255 A 12.456 12.456 0 0 1 186.241 46.8 Q 185.566 45.21 185.427 43.873 A 6.529 6.529 0 0 1 185.391 43.2 Q 185.391 42 186.091 40.15 A 21.654 21.654 0 0 1 187.037 38.021 A 27.755 27.755 0 0 1 187.991 36.3 A 20.881 20.881 0 0 1 189.061 34.684 Q 189.651 33.88 190.264 33.234 A 12.321 12.321 0 0 1 190.491 33 A 33.743 33.743 0 0 1 191.968 31.69 Q 192.803 30.989 193.775 30.251 A 62.281 62.281 0 0 1 194.991 29.35 Q 197.691 27.4 200.341 25.85 Q 202.916 24.344 204.688 23.83 A 9.125 9.125 0 0 1 204.791 23.8 A 11.22 11.22 0 0 1 206.371 23.31 Q 207.294 23.1 208.141 23.1 A 5.842 5.842 0 0 1 209.732 23.31 A 4.961 4.961 0 0 1 210.891 23.8 A 5.856 5.856 0 0 1 212.196 24.7 A 7.261 7.261 0 0 1 212.741 25.25 Q 213.591 26.2 214.241 27.15 Q 214.891 28.1 215.091 28.8 Q 215.091 30 214.891 31.45 A 18.798 18.798 0 0 1 214.688 32.652 Q 214.562 33.267 214.402 33.804 A 11.057 11.057 0 0 1 214.341 34 A 3.038 3.038 0 0 1 214.172 34.429 Q 213.838 35.1 213.291 35.1 L 213.041 35.15 Q 212.822 35.194 212.795 35.585 A 1.691 1.691 0 0 0 212.791 35.7 Q 212.791 36.553 211.7 37.624 A 8.969 8.969 0 0 1 211.291 38 Q 209.391 39.3 207.991 39.55 Q 206.84 39.756 206.432 38.913 A 1.96 1.96 0 0 1 206.291 38.5 A 4.124 4.124 0 0 1 206.123 38.26 Q 206.043 38.135 205.986 38.022 A 1.641 1.641 0 0 1 205.891 37.8 A 0.402 0.402 0 0 0 205.615 37.53 Q 205.536 37.506 205.438 37.501 A 0.998 0.998 0 0 0 205.391 37.5 L 205.091 37.2 A 0.872 0.872 0 0 1 204.9 36.898 Q 204.798 36.639 204.792 36.252 A 3.163 3.163 0 0 1 204.791 36.2 A 1.069 1.069 0 0 1 204.964 35.623 A 1.451 1.451 0 0 1 205.091 35.45 L 205.391 35.1 A 0.632 0.632 0 0 0 205.692 35.012 Q 206.069 34.805 206.573 34.117 A 8.728 8.728 0 0 0 206.691 33.95 A 17.942 17.942 0 0 0 207.977 31.785 A 19.946 19.946 0 0 0 208.141 31.45 A 16.285 16.285 0 0 0 208.395 30.9 Q 208.73 30.131 208.782 29.733 A 1.037 1.037 0 0 0 208.791 29.6 Q 208.791 29 208.641 28.9 A 0.326 0.326 0 0 0 208.549 28.862 Q 208.326 28.801 207.712 28.8 A 12.591 12.591 0 0 0 207.691 28.8 A 45.364 45.364 0 0 0 206.557 29.306 Q 206.049 29.541 205.483 29.814 A 95.801 95.801 0 0 0 204.291 30.4 Q 202.291 31.4 200.541 32.35 Q 198.932 33.224 198.126 33.971 A 4.913 4.913 0 0 0 197.991 34.1 A 83.391 83.391 0 0 1 197.852 34.343 Q 197.573 34.828 197.491 34.95 A 0.25 0.25 0 0 1 197.394 35.032 Q 197.3 35.08 197.139 35.094 A 1.692 1.692 0 0 1 196.991 35.1 A 0.332 0.332 0 0 0 196.987 35.039 Q 196.935 34.765 196.341 35.45 A 19.421 19.421 0 0 0 195.906 35.973 Q 195.411 36.586 194.783 37.443 A 62.109 62.109 0 0 0 194.741 37.5 A 93.232 93.232 0 0 0 193.155 39.737 A 84.758 84.758 0 0 0 192.941 40.05 Q 192.107 41.278 191.706 41.878 A 81.413 81.413 0 0 0 191.691 41.9 Q 191.526 42.065 191.327 42.743 A 11.05 11.05 0 0 0 191.241 43.05 A 8.125 8.125 0 0 0 191.058 43.935 A 5.955 5.955 0 0 0 190.991 44.8 Q 190.734 45.573 190.85 46.035 A 0.807 0.807 0 0 0 191.091 46.45 A 18.045 18.045 0 0 0 191.368 46.693 Q 191.963 47.206 193.291 48.3 A 189.437 189.437 0 0 1 194.948 49.544 Q 197.291 51.325 198.791 52.6 Q 200.791 54.3 201.791 55.4 Q 202.789 56.497 202.99 57.395 A 2.256 2.256 0 0 1 202.991 57.4 Q 204.791 60.4 204.091 62 A 3.759 3.759 0 0 1 203.285 63.144 Q 202.379 64.05 200.691 64.8 A 4.847 4.847 0 0 1 200.026 65.066 Q 199.045 65.385 197.391 65.6 Q 195.091 65.9 192.691 65.95 Q 190.921 65.987 189.695 65.888 A 13.27 13.27 0 0 1 188.891 65.8 Z M 320.307 85.723 A 10.866 10.866 0 0 0 323.091 85.3 A 8.107 8.107 0 0 0 323.301 85.237 Q 324.607 84.825 326.041 83.9 Q 327.591 82.9 329.091 81.7 A 81.757 81.757 0 0 0 329.98 80.979 Q 330.4 80.634 330.771 80.317 A 40.833 40.833 0 0 0 331.591 79.6 A 59.204 59.204 0 0 0 331.741 79.418 A 64.205 64.205 0 0 0 336.141 73.35 Q 338.291 70 340.591 66.3 A 105.845 105.845 0 0 1 340.899 65.527 Q 341.357 64.387 341.797 63.372 A 61.757 61.757 0 0 1 342.691 61.4 Q 343.691 59.3 344.991 56.8 Q 345.966 54.925 347.223 52.206 A 210.02 210.02 0 0 0 348.091 50.3 Q 348.591 49.1 349.241 47.65 Q 349.891 46.2 350.391 45 A 3.05 3.05 0 0 0 350.503 44.857 Q 350.993 44.192 351.841 42.45 A 31.404 31.404 0 0 0 352.644 40.658 A 39.577 39.577 0 0 0 353.591 38.1 A 61.03 61.03 0 0 0 354.06 37.209 Q 355.182 35.028 355.641 33.65 Q 356.046 32.437 355.991 31.494 A 3.312 3.312 0 0 0 355.891 30.85 A 3.676 3.676 0 0 0 355.656 30.21 Q 355.448 29.768 355.11 29.319 A 7.808 7.808 0 0 0 354.391 28.5 Q 353.532 28.031 353.13 27.929 A 0.789 0.789 0 0 0 352.941 27.9 Q 352.591 27.9 351.691 28.6 Q 350.791 28.9 350.041 30.35 A 636.234 636.234 0 0 1 349.878 30.665 Q 349.165 32.043 348.091 34.1 A 19.219 19.219 0 0 0 347.531 35.196 Q 346.811 36.713 346.091 38.8 A 967.872 967.872 0 0 0 345.65 40.083 Q 344.974 42.052 344.591 43.2 Q 343.891 44.7 343.091 46.2 Q 342.466 47.372 342.269 47.934 A 2.025 2.025 0 0 0 342.191 48.2 Q 342.115 48.506 341.833 49.194 A 31.371 31.371 0 0 1 341.641 49.65 Q 341.191 50.7 340.591 51.9 Q 340.254 52.294 339.98 52.814 A 7.113 7.113 0 0 0 339.591 53.7 Q 339.341 54.388 339.13 54.958 A 152.365 152.365 0 0 1 338.891 55.6 Q 337.491 58.8 335.441 62.55 Q 333.391 66.3 331.491 69.4 A 446.636 446.636 0 0 1 331.197 69.88 Q 329.978 71.864 329.256 72.988 A 50.042 50.042 0 0 1 328.791 73.7 A 23.55 23.55 0 0 1 328.369 74.256 Q 327.709 75.098 326.889 75.997 A 44.061 44.061 0 0 1 325.141 77.8 Q 323.999 78.917 322.843 79.596 A 7.656 7.656 0 0 1 320.591 80.5 A 11.82 11.82 0 0 1 320.013 80.597 Q 319.114 80.724 318.279 80.695 A 7.864 7.864 0 0 1 315.891 80.25 A 48.941 48.941 0 0 1 315.857 80.238 Q 314.307 79.683 313.473 79.266 A 5.879 5.879 0 0 1 312.991 79 A 1.783 1.783 0 0 0 312.957 78.96 Q 312.552 78.503 312.051 78.591 A 1.132 1.132 0 0 0 311.841 78.65 A 2.055 2.055 0 0 0 311.155 79.092 A 2.78 2.78 0 0 0 310.741 79.6 Q 310.291 80.3 310.391 80.9 Q 310.608 82.053 311.785 83.051 A 8.18 8.18 0 0 0 312.841 83.8 Q 314.991 85.1 317.841 85.55 A 15.259 15.259 0 0 0 318.257 85.61 Q 319.314 85.747 320.307 85.723 Z M 20.591 8.8 L 21.091 7.1 L 26.991 7 Q 26.794 8.186 26.401 9.909 A 87.778 87.778 0 0 1 26.391 9.95 Q 25.991 11.7 24.491 14.6 A 30.536 30.536 0 0 1 23.918 16.612 A 23.399 23.399 0 0 1 23.341 18.2 A 16.989 16.989 0 0 0 23.122 18.767 Q 22.71 19.895 22.791 20.3 A 0.653 0.653 0 0 0 22.701 20.431 Q 22.512 20.763 22.125 21.8 A 49.852 49.852 0 0 0 21.941 22.3 Q 21.291 24.1 20.441 26.7 L 18.741 31.9 Q 17.891 34.5 17.241 36.45 A 215.194 215.194 0 0 1 17.013 37.13 Q 16.554 38.494 16.391 38.9 Q 15.723 40.236 14.916 42.619 A 69.977 69.977 0 0 0 14.591 43.6 Q 13.826 45.974 12.474 49.637 A 346.245 346.245 0 0 1 11.591 52 Q 10.791 53.6 9.641 56.8 Q 8.568 59.788 7.886 62.252 A 53.406 53.406 0 0 0 7.791 62.6 Q 6.779 66.191 6.317 67.79 A 200.312 200.312 0 0 1 6.241 68.05 Q 5.802 69.565 5.505 69.743 A 0.206 0.206 0 0 1 5.491 69.75 A 0.691 0.691 0 0 1 5.346 69.801 Q 5.077 69.867 4.584 69.821 A 6.165 6.165 0 0 1 4.391 69.8 A 1.249 1.249 0 0 1 3.825 69.65 Q 3.393 69.431 2.913 68.89 A 7.113 7.113 0 0 1 2.591 68.5 Q 1.682 67.318 1.682 66.219 A 2.636 2.636 0 0 1 1.691 66 A 12.023 12.023 0 0 1 1.803 64.989 Q 1.966 63.892 2.342 62.371 A 53.754 53.754 0 0 1 2.591 61.4 Q 3.391 58.4 4.391 55.3 Q 5.346 52.342 6.118 50.567 A 23.483 23.483 0 0 1 6.191 50.4 A 128.133 128.133 0 0 1 6.555 48.977 Q 6.73 48.31 6.895 47.718 A 74.836 74.836 0 0 1 6.941 47.55 A 230.716 230.716 0 0 0 7.083 47.044 Q 7.313 46.213 7.391 45.9 A 2.064 2.064 0 0 0 7.539 45.663 Q 7.834 45.129 8.341 43.8 A 30.076 30.076 0 0 0 9.147 41.408 A 25.954 25.954 0 0 0 9.391 40.5 A 28.544 28.544 0 0 1 9.51 40.046 Q 9.744 39.173 10.241 37.45 A 165.073 165.073 0 0 1 10.771 35.657 Q 11.009 34.866 11.277 34.002 A 293.955 293.955 0 0 1 11.841 32.2 Q 12.791 29.2 13.741 26.3 A 803.195 803.195 0 0 0 14.525 23.897 Q 14.998 22.438 15.391 21.2 Q 16.091 19 16.291 18.3 A 12.856 12.856 0 0 0 16.973 17.161 A 9.379 9.379 0 0 0 17.491 16 A 50.493 50.493 0 0 0 17.662 15.523 Q 17.915 14.806 17.991 14.5 A 1.738 1.738 0 0 0 18.403 14.126 A 1.434 1.434 0 0 0 18.691 13.45 A 11.717 11.717 0 0 0 18.744 13.068 Q 18.788 12.701 18.791 12.437 A 3.34 3.34 0 0 0 18.791 12.4 A 1.155 1.155 0 0 1 18.849 12.027 A 0.962 0.962 0 0 1 19.141 11.6 A 1.123 1.123 0 0 0 19.351 11.366 A 0.831 0.831 0 0 0 19.491 10.9 A 1.162 1.162 0 0 0 19.85 10.444 Q 19.948 10.229 19.991 9.95 A 2.012 2.012 0 0 1 20.516 8.879 A 2.499 2.499 0 0 1 20.591 8.8 Z M 291.291 38.4 L 291.291 37.8 A 0.89 0.89 0 0 1 291.347 37.517 Q 291.494 37.089 292.029 36.375 A 13.181 13.181 0 0 1 292.241 36.1 A 28.876 28.876 0 0 1 293.159 35.002 Q 293.804 34.266 294.591 33.45 Q 295.991 32 297.491 30.65 A 29.596 29.596 0 0 1 298.379 29.881 Q 299.206 29.194 299.844 28.791 A 7.599 7.599 0 0 1 299.991 28.7 A 10.992 10.992 0 0 1 302.53 27.428 A 9.436 9.436 0 0 1 304.341 27 A 6.29 6.29 0 0 1 305.056 26.945 Q 305.109 26.944 305.162 26.944 A 4.661 4.661 0 0 1 308.191 28 L 309.191 29 A 33.23 33.23 0 0 0 309.852 29.641 Q 310.193 29.964 310.579 30.314 A 56.405 56.405 0 0 0 310.841 30.55 A 898.559 898.559 0 0 1 312.776 32.286 A 3717.915 3717.915 0 0 0 312.791 32.3 L 316.491 35.6 L 314.691 40.6 A 19.486 19.486 0 0 0 314.099 42.848 Q 313.581 45.475 314.041 47.6 Q 314.691 50.6 315.991 52.8 A 3.594 3.594 0 0 0 316.557 53.661 Q 316.867 54.02 317.298 54.367 A 8.708 8.708 0 0 0 318.041 54.9 Q 319.39 55.77 320.625 56.035 A 5.39 5.39 0 0 0 320.991 56.1 A 3.219 3.219 0 0 1 322.404 56.639 A 3.796 3.796 0 0 1 322.491 56.7 A 1.596 1.596 0 0 1 323.112 57.629 Q 323.191 57.931 323.191 58.3 Q 323.191 59.044 322.97 59.566 A 2.02 2.02 0 0 1 322.791 59.9 Q 322.46 60.397 321.717 60.62 A 3.587 3.587 0 0 1 321.391 60.7 Q 318.349 61.069 315.689 59.398 A 10.551 10.551 0 0 1 315.241 59.1 A 12.579 12.579 0 0 1 313.042 57.094 Q 311.435 55.267 309.991 52.5 Q 309.591 51.9 308.941 50.25 A 56.51 56.51 0 0 1 308.717 49.672 Q 308.379 48.786 308.251 48.339 A 3.116 3.116 0 0 1 308.191 48.1 A 90.418 90.418 0 0 1 307.965 48.381 Q 307.635 48.791 307.064 49.493 A 885.665 885.665 0 0 1 306.691 49.95 Q 305.601 51.288 305.002 51.889 A 8.395 8.395 0 0 1 304.991 51.9 Q 297.891 59.1 292.741 61.55 A 15.733 15.733 0 0 1 290.814 62.324 Q 286.934 63.575 284.191 61.8 A 4.039 4.039 0 0 0 283.772 61.127 A 3.064 3.064 0 0 0 283.191 60.55 A 2.75 2.75 0 0 1 282.943 60.342 Q 282.691 60.102 282.62 59.876 A 0.58 0.58 0 0 1 282.591 59.7 A 7.195 7.195 0 0 0 282.572 59.181 A 8.664 8.664 0 0 0 282.541 58.85 Q 282.491 58.4 282.091 58 Q 281.637 57.455 282.09 55.632 A 13.851 13.851 0 0 1 282.191 55.25 A 25.78 25.78 0 0 1 282.698 53.654 Q 282.986 52.836 283.359 51.91 A 60.924 60.924 0 0 1 284.191 49.95 Q 285.591 46.8 287.491 43.3 Q 288.171 42.621 288.851 41.58 A 16.69 16.69 0 0 0 289.091 41.2 A 28.114 28.114 0 0 1 289.444 40.64 Q 289.985 39.806 290.291 39.5 A 1.069 1.069 0 0 1 290.464 38.923 A 1.451 1.451 0 0 1 290.591 38.75 A 1.123 1.123 0 0 1 290.825 38.54 A 0.831 0.831 0 0 1 291.291 38.4 Z M 377.891 61.9 Q 375.791 63.7 373.041 64 A 10.427 10.427 0 0 1 371.91 64.062 A 10.332 10.332 0 0 1 367.691 63.15 Q 365.091 62 363.391 59.6 Q 361.691 57.4 361.191 54.55 A 17.336 17.336 0 0 1 360.992 52.947 Q 360.796 50.502 361.091 47.1 A 17.712 17.712 0 0 1 362.303 41.96 A 22.496 22.496 0 0 1 363.591 39.25 Q 365.791 35.3 368.941 32.2 A 24.617 24.617 0 0 1 371.444 30.031 Q 372.826 28.996 374.199 28.332 A 13.317 13.317 0 0 1 375.191 27.9 A 8.375 8.375 0 0 1 375.963 27.44 Q 376.907 26.948 377.64 26.948 A 2.123 2.123 0 0 1 377.741 26.95 Q 378.772 26.999 380.912 27.193 A 213.46 213.46 0 0 1 380.991 27.2 A 19.603 19.603 0 0 1 382.194 27.393 Q 383.378 27.623 384.149 27.96 A 4.762 4.762 0 0 1 384.441 28.1 Q 385.591 28.7 386.291 29.7 Q 387.45 30.859 388.012 31.988 A 5.538 5.538 0 0 1 388.291 32.65 A 9.099 9.099 0 0 1 388.743 34.62 A 8.015 8.015 0 0 1 388.791 35.5 A 6.935 6.935 0 0 1 388.306 37.027 Q 387.669 38.483 386.307 40.26 A 28.413 28.413 0 0 1 385.841 40.85 A 18.328 18.328 0 0 1 381.26 44.857 A 22.557 22.557 0 0 1 379.191 46 A 13.155 13.155 0 0 1 376.064 46.579 Q 375.25 46.633 374.391 46.6 A 9.866 9.866 0 0 1 372.445 46.342 Q 371.107 46.017 370.091 45.3 A 5.898 5.898 0 0 0 369.625 45.125 Q 368.745 44.839 368.2 45.031 A 1.111 1.111 0 0 0 367.591 45.55 A 3.529 3.529 0 0 0 367.334 46.151 Q 366.984 47.178 366.67 49.287 A 57.347 57.347 0 0 0 366.491 50.6 A 21.932 21.932 0 0 0 366.407 51.628 Q 366.282 53.784 366.685 55.167 A 4.527 4.527 0 0 0 367.091 56.15 Q 368.091 57.9 369.791 58.2 Q 371.44 58.53 372.511 58.69 A 23.622 23.622 0 0 0 372.941 58.75 A 2.39 2.39 0 0 0 373.251 58.77 Q 374.292 58.77 375.732 57.935 A 10.777 10.777 0 0 0 375.791 57.9 A 66.796 66.796 0 0 1 376.349 57.555 Q 377.448 56.883 377.78 56.754 A 1.044 1.044 0 0 1 377.791 56.75 A 2.112 2.112 0 0 0 378.133 56.588 A 1.574 1.574 0 0 0 378.441 56.35 L 379.691 55.1 A 46.298 46.298 0 0 1 380.023 54.772 Q 380.491 54.313 380.791 54.05 A 1.426 1.426 0 0 1 381.238 53.78 A 1.301 1.301 0 0 1 381.691 53.7 A 1.084 1.084 0 0 1 382.358 53.932 A 1.619 1.619 0 0 1 382.591 54.15 Q 382.915 54.514 383.239 54.715 A 1.927 1.927 0 0 0 383.391 54.8 A 1.193 1.193 0 0 1 383.643 54.824 Q 384.268 54.96 383.9 55.864 A 3.41 3.41 0 0 1 383.841 56 A 6.107 6.107 0 0 1 383.395 56.794 Q 382.876 57.586 381.991 58.535 A 22.424 22.424 0 0 1 381.691 58.85 Q 380.091 60.5 377.891 61.9 Z M 24.891 8.5 L 18.991 8.8 L 14.091 9.3 Q 13.326 9.377 12.091 9.483 A 334.397 334.397 0 0 1 11.291 9.55 A 724.242 724.242 0 0 0 7.898 9.841 A 680.745 680.745 0 0 0 7.791 9.85 Q 6.39 9.974 5.533 10.131 A 9.451 9.451 0 0 0 5.191 10.2 Q 2.554 10.294 1.203 9.945 A 4.803 4.803 0 0 1 1.041 9.9 A 1.796 1.796 0 0 1 0.538 9.67 Q -0.2 9.168 0.074 7.972 A 3.742 3.742 0 0 1 0.091 7.9 A 3.048 3.048 0 0 1 0.536 6.893 A 2.739 2.739 0 0 1 1.391 6.1 A 4.973 4.973 0 0 1 2.185 5.723 Q 3.045 5.397 4.291 5.2 Q 5.391 5 7.141 4.7 Q 8.891 4.4 10.491 4.1 A 494.494 494.494 0 0 0 12.07 3.906 Q 14.179 3.644 15.724 3.43 A 163.617 163.617 0 0 0 15.941 3.4 A 85.345 85.345 0 0 1 19.819 2.952 A 93.585 93.585 0 0 1 20.391 2.9 Q 22.577 2.71 25.846 2.52 A 349.97 349.97 0 0 1 26.191 2.5 A 1657.294 1657.294 0 0 0 28.247 2.357 Q 29.054 2.301 29.777 2.249 A 837.782 837.782 0 0 0 31.141 2.15 L 33.191 2 A 2.787 2.787 0 0 1 33.357 2.007 Q 33.744 2.032 34.798 2.146 A 163.867 163.867 0 0 1 35.291 2.2 Q 37.091 2.4 39.191 2.7 Q 41.291 3 42.291 3.4 A 13.533 13.533 0 0 1 43.547 3.732 Q 44.903 4.167 45.641 4.8 A 4.077 4.077 0 0 1 46.637 6.106 Q 46.896 6.627 47.059 7.267 A 7.319 7.319 0 0 1 47.091 7.4 Q 47.335 8.373 47.184 8.721 A 0.34 0.34 0 0 1 47.091 8.85 Q 46.865 9.039 46.355 9.312 A 14.338 14.338 0 0 1 45.991 9.5 A 28.981 28.981 0 0 1 44.916 9.806 Q 43.878 10.079 43.163 10.163 A 4.953 4.953 0 0 1 42.591 10.2 A 5.84 5.84 0 0 1 41.572 10.104 Q 41.074 10.016 40.527 9.846 A 11.114 11.114 0 0 1 40.091 9.7 A 6.133 6.133 0 0 0 39.141 8.928 A 6.954 6.954 0 0 0 38.941 8.8 A 2.815 2.815 0 0 0 38.505 8.587 Q 38.02 8.395 37.277 8.246 A 14.492 14.492 0 0 0 36.741 8.15 Q 35.191 7.9 31.891 7.7 A 61.062 61.062 0 0 1 29.89 7.883 Q 28.899 7.956 28.014 7.984 A 32.984 32.984 0 0 1 26.991 8 A 13.806 13.806 0 0 0 26.386 8.012 Q 24.891 8.078 24.891 8.5 Z M 335.196 60.805 A 3.766 3.766 0 0 0 336.591 61.3 A 1.335 1.335 0 0 0 336.811 61.318 Q 337.31 61.318 337.841 60.95 A 3.181 3.181 0 0 0 338.223 60.64 A 3.466 3.466 0 0 0 338.891 59.75 A 3.739 3.739 0 0 0 339.15 59.149 A 2.733 2.733 0 0 0 339.291 58.3 A 1.133 1.133 0 0 0 338.959 57.478 A 1.666 1.666 0 0 0 338.591 57.2 Q 336.891 56.1 335.941 53.1 A 20.081 20.081 0 0 1 335.78 52.565 Q 335.361 51.1 335.11 49.409 A 34.257 34.257 0 0 1 334.791 46.1 Q 334.591 42.1 334.791 38.1 Q 335.189 32.374 334.67 29.526 A 8.137 8.137 0 0 0 334.341 28.25 Q 333.391 25.6 330.591 26.8 Q 330.341 26.988 330.091 27.273 A 5.309 5.309 0 0 0 329.791 27.65 Q 329.391 28.2 329.491 29.8 A 20.346 20.346 0 0 0 329.459 30.248 Q 329.412 31.023 329.398 32.078 A 71.601 71.601 0 0 0 329.391 33.05 A 18.952 18.952 0 0 1 329.325 34.658 A 14.854 14.854 0 0 1 328.991 36.8 Q 328.791 39.2 328.841 41.9 A 88.099 88.099 0 0 0 328.9 43.883 A 74.25 74.25 0 0 0 329.091 47 A 29.913 29.913 0 0 0 329.245 48.445 Q 329.335 49.122 329.45 49.706 A 12.813 12.813 0 0 0 329.741 50.9 A 7.838 7.838 0 0 0 329.799 51.083 Q 330.229 52.4 330.791 52.4 L 330.791 52.7 L 330.791 53.5 A 1.244 1.244 0 0 0 330.767 53.627 Q 330.652 54.437 331.391 56.1 Q 332.191 57.9 333.641 59.5 Q 334.412 60.35 335.196 60.805 Z M 306.991 40.5 L 309.191 36.9 A 14.111 14.111 0 0 0 308.617 35.721 Q 307.979 34.563 307.285 33.948 A 3.548 3.548 0 0 0 307.041 33.75 A 6.822 6.822 0 0 0 306.439 33.349 Q 305.804 32.977 305.296 32.913 A 1.644 1.644 0 0 0 305.091 32.9 A 2.17 2.17 0 0 0 304.313 33.07 Q 303.114 33.538 301.241 35.3 A 32.768 32.768 0 0 0 299.28 37.325 Q 297.604 39.2 295.791 41.7 A 76.304 76.304 0 0 0 291.694 48.007 A 88.735 88.735 0 0 0 290.291 50.5 A 57.558 57.558 0 0 0 289.139 52.942 A 48.523 48.523 0 0 0 288.541 54.35 L 287.791 56.2 A 0.293 0.293 0 0 0 288.011 56.5 Q 288.479 56.66 289.941 56.15 Q 291.613 55.567 293.495 54.229 A 24.22 24.22 0 0 0 294.591 53.4 Q 297.991 50.5 301.441 47 A 67.048 67.048 0 0 0 304.022 44.239 Q 305.26 42.832 306.252 41.516 A 35.475 35.475 0 0 0 306.991 40.5 Z M 87.188 60.636 A 4.444 4.444 0 0 0 88.191 62.2 Q 89.434 63.589 90.169 63.589 A 0.671 0.671 0 0 0 90.641 63.4 A 1.776 1.776 0 0 0 90.955 62.971 Q 91.576 61.86 92.291 58.6 A 6.388 6.388 0 0 0 92.691 57.852 A 7.957 7.957 0 0 0 93.091 56.75 A 32.566 32.566 0 0 0 93.302 55.977 A 27.317 27.317 0 0 0 93.591 54.75 A 19.01 19.01 0 0 1 93.631 54.569 Q 93.75 54.027 93.87 53.647 A 4.853 4.853 0 0 1 93.991 53.3 Q 94.391 52 94.941 50.55 Q 95.32 49.553 95.627 48.864 A 14.082 14.082 0 0 1 95.891 48.3 A 10.637 10.637 0 0 1 95.955 47.954 Q 96.061 47.427 96.23 46.845 A 19.166 19.166 0 0 1 96.641 45.6 Q 97.191 44.1 97.591 43.3 A 28.669 28.669 0 0 0 97.614 43.251 Q 98.323 41.696 98.652 40.48 A 8.678 8.678 0 0 0 98.891 39.3 Q 98.991 38.5 98.841 37.9 A 2.103 2.103 0 0 0 98.291 36.9 A 20.447 20.447 0 0 0 98.149 36.675 Q 97.248 35.275 96.691 34.95 A 1.156 1.156 0 0 0 96.335 34.818 Q 95.776 34.705 94.891 35 A 3.613 3.613 0 0 0 94.533 35.04 Q 93.704 35.175 93.429 35.691 A 1.275 1.275 0 0 0 93.291 36.3 A 4.632 4.632 0 0 1 93.277 36.357 Q 93.183 36.714 92.865 37.742 A 188.752 188.752 0 0 1 92.691 38.3 A 558.967 558.967 0 0 1 92.359 39.359 Q 91.973 40.588 91.491 42.1 Q 90.791 44.3 89.991 46.55 A 83.802 83.802 0 0 1 89.622 47.569 Q 89.319 48.389 89.03 49.109 A 43.998 43.998 0 0 1 88.491 50.4 Q 88.191 51.3 87.891 52.3 Q 87.631 53.167 87.672 53.583 A 0.806 0.806 0 0 0 87.691 53.7 A 0.956 0.956 0 0 1 87.72 53.933 Q 87.72 54.229 87.541 54.55 Q 87.37 54.86 87.316 55.334 A 4.155 4.155 0 0 0 87.291 55.8 A 3.853 3.853 0 0 0 87.15 56.119 Q 87.006 56.486 86.915 56.924 A 7.273 7.273 0 0 0 86.791 57.8 Q 86.691 59 87.041 60.2 A 5.433 5.433 0 0 0 87.188 60.636 Z M 164.188 60.636 A 4.444 4.444 0 0 0 165.191 62.2 Q 166.434 63.589 167.169 63.589 A 0.671 0.671 0 0 0 167.641 63.4 A 1.776 1.776 0 0 0 167.955 62.971 Q 168.576 61.86 169.291 58.6 A 6.388 6.388 0 0 0 169.691 57.852 A 7.957 7.957 0 0 0 170.091 56.75 A 32.566 32.566 0 0 0 170.302 55.977 A 27.317 27.317 0 0 0 170.591 54.75 A 19.01 19.01 0 0 1 170.631 54.569 Q 170.75 54.027 170.87 53.647 A 4.853 4.853 0 0 1 170.991 53.3 Q 171.391 52 171.941 50.55 Q 172.32 49.553 172.627 48.864 A 14.082 14.082 0 0 1 172.891 48.3 A 10.637 10.637 0 0 1 172.955 47.954 Q 173.061 47.427 173.23 46.845 A 19.166 19.166 0 0 1 173.641 45.6 Q 174.191 44.1 174.591 43.3 A 28.669 28.669 0 0 0 174.614 43.251 Q 175.323 41.696 175.652 40.48 A 8.678 8.678 0 0 0 175.891 39.3 Q 175.991 38.5 175.841 37.9 A 2.103 2.103 0 0 0 175.291 36.9 A 20.447 20.447 0 0 0 175.149 36.675 Q 174.248 35.275 173.691 34.95 A 1.156 1.156 0 0 0 173.335 34.818 Q 172.776 34.705 171.891 35 A 3.613 3.613 0 0 0 171.533 35.04 Q 170.704 35.175 170.429 35.691 A 1.275 1.275 0 0 0 170.291 36.3 A 4.632 4.632 0 0 1 170.277 36.357 Q 170.183 36.714 169.865 37.742 A 188.752 188.752 0 0 1 169.691 38.3 A 558.967 558.967 0 0 1 169.359 39.359 Q 168.973 40.588 168.491 42.1 Q 167.791 44.3 166.991 46.55 A 83.802 83.802 0 0 1 166.622 47.569 Q 166.319 48.389 166.03 49.109 A 43.998 43.998 0 0 1 165.491 50.4 Q 165.191 51.3 164.891 52.3 Q 164.631 53.167 164.672 53.583 A 0.806 0.806 0 0 0 164.691 53.7 A 0.956 0.956 0 0 1 164.72 53.933 Q 164.72 54.229 164.541 54.55 Q 164.37 54.86 164.316 55.334 A 4.155 4.155 0 0 0 164.291 55.8 A 3.853 3.853 0 0 0 164.15 56.119 Q 164.006 56.486 163.915 56.924 A 7.273 7.273 0 0 0 163.791 57.8 Q 163.691 59 164.041 60.2 A 5.433 5.433 0 0 0 164.188 60.636 Z M 377.791 40.7 A 9.396 9.396 0 0 0 378.881 40.11 Q 379.473 39.74 380.091 39.25 A 11.256 11.256 0 0 0 381.867 37.505 A 10.304 10.304 0 0 0 382.141 37.15 A 6.822 6.822 0 0 0 382.543 36.547 Q 382.915 35.913 382.978 35.405 A 1.644 1.644 0 0 0 382.991 35.2 A 2.684 2.684 0 0 0 382.117 33.206 A 4.04 4.04 0 0 0 381.691 32.85 A 2.746 2.746 0 0 0 380.651 32.393 Q 379.636 32.169 378.182 32.503 A 10.745 10.745 0 0 0 377.791 32.6 A 4.511 4.511 0 0 0 376.962 32.926 Q 376.575 33.12 376.158 33.401 A 11.414 11.414 0 0 0 375.291 34.05 Q 373.891 35.2 372.641 36.6 A 34.257 34.257 0 0 0 371.774 37.608 Q 371.11 38.413 370.641 39.1 Q 369.972 40.083 370.06 40.347 A 0.133 0.133 0 0 0 370.091 40.4 A 0.895 0.895 0 0 0 370.357 40.668 Q 370.796 40.972 371.791 41.15 Q 373.141 41.391 374.817 41.307 A 18.443 18.443 0 0 0 374.941 41.3 Q 376.201 41.228 377.124 40.949 A 5.372 5.372 0 0 0 377.791 40.7 Z M 97.509 21.13 A 3.2 3.2 0 0 0 97.891 21.6 A 6.051 6.051 0 0 0 98.321 21.909 Q 99.273 22.531 100.153 22.531 A 2.453 2.453 0 0 0 100.541 22.5 A 2.162 2.162 0 0 0 101.072 22.339 Q 102.103 21.884 103.291 20.3 A 28.073 28.073 0 0 0 103.959 19.454 Q 104.757 18.398 105.168 17.605 A 4.927 4.927 0 0 0 105.491 16.85 Q 105.798 15.891 105.34 14.549 A 8.136 8.136 0 0 0 104.991 13.7 A 8.923 8.923 0 0 0 104.507 12.998 Q 104.147 12.528 103.768 12.186 A 3.888 3.888 0 0 0 102.841 11.55 A 2.532 2.532 0 0 0 102.709 11.492 Q 101.623 11.046 100.491 11.8 A 1.25 1.25 0 0 0 100.115 11.964 A 1.493 1.493 0 0 0 99.791 12.25 A 1.451 1.451 0 0 0 99.664 12.423 A 1.069 1.069 0 0 0 99.491 13 A 2.3 2.3 0 0 1 99.522 13.379 Q 99.522 14.121 99.072 15.002 A 7.2 7.2 0 0 1 98.591 15.8 A 12.283 12.283 0 0 1 98.559 15.847 Q 97.48 17.402 96.691 17.5 A 0.165 0.165 0 0 0 96.565 17.555 Q 96.417 17.716 96.491 18.35 Q 96.591 19.2 96.991 20.15 A 6.994 6.994 0 0 0 97.185 20.572 Q 97.34 20.881 97.509 21.13 Z M 174.509 21.13 A 3.2 3.2 0 0 0 174.891 21.6 A 6.051 6.051 0 0 0 175.321 21.909 Q 176.273 22.531 177.153 22.531 A 2.453 2.453 0 0 0 177.541 22.5 A 2.162 2.162 0 0 0 178.072 22.339 Q 179.103 21.884 180.291 20.3 A 28.073 28.073 0 0 0 180.959 19.454 Q 181.757 18.398 182.168 17.605 A 4.927 4.927 0 0 0 182.491 16.85 Q 182.798 15.891 182.34 14.549 A 8.136 8.136 0 0 0 181.991 13.7 A 8.923 8.923 0 0 0 181.507 12.998 Q 181.147 12.528 180.768 12.186 A 3.888 3.888 0 0 0 179.841 11.55 A 2.532 2.532 0 0 0 179.709 11.492 Q 178.623 11.046 177.491 11.8 A 1.25 1.25 0 0 0 177.115 11.964 A 1.493 1.493 0 0 0 176.791 12.25 A 1.451 1.451 0 0 0 176.664 12.423 A 1.069 1.069 0 0 0 176.491 13 A 2.3 2.3 0 0 1 176.522 13.379 Q 176.522 14.121 176.072 15.002 A 7.2 7.2 0 0 1 175.591 15.8 A 12.283 12.283 0 0 1 175.559 15.847 Q 174.48 17.402 173.691 17.5 A 0.165 0.165 0 0 0 173.565 17.555 Q 173.417 17.716 173.491 18.35 Q 173.591 19.2 173.991 20.15 A 6.994 6.994 0 0 0 174.185 20.572 Q 174.34 20.881 174.509 21.13 Z" vector-effect="non-scaling-stroke"/></g></svg>